<svg width="368" height="248" viewBox="0 0 368 248" fill="none" xmlns="http://www.w3.org/2000/svg">
<circle cx="148" cy="220" r="4" transform="rotate(90 148 220)" fill="#137CDE"/>
<circle cx="292" cy="220" r="4" transform="rotate(90 292 220)" fill="#137CDE"/>
<circle cx="4" cy="220" r="4" transform="rotate(90 4 220)" fill="#137CDE"/>
<circle cx="340" cy="220" r="4" transform="rotate(90 340 220)" fill="#137CDE"/>
<circle cx="52" cy="220" r="4" transform="rotate(90 52 220)" fill="#137CDE"/>
<circle cx="100" cy="220" r="4" transform="rotate(90 100 220)" fill="#137CDE"/>
<circle cx="196" cy="76" r="4" transform="rotate(90 196 76)" fill="#137CDE"/>
<circle cx="196" cy="220" r="4" transform="rotate(90 196 220)" fill="#137CDE"/>
<circle cx="196" cy="244" r="4" transform="rotate(90 196 244)" fill="#137CDE"/>
<circle cx="316" cy="76" r="4" transform="rotate(90 316 76)" fill="#137CDE"/>
<circle cx="364" cy="76" r="4" transform="rotate(90 364 76)" fill="#137CDE"/>
<circle cx="316" cy="220" r="4" transform="rotate(90 316 220)" fill="#137CDE"/>
<circle cx="28" cy="220" r="4" transform="rotate(90 28 220)" fill="#137CDE"/>
<circle cx="364" cy="220" r="4" transform="rotate(90 364 220)" fill="#137CDE"/>
<circle cx="76" cy="220" r="4" transform="rotate(90 76 220)" fill="#137CDE"/>
<circle cx="220" cy="220" r="4" transform="rotate(90 220 220)" fill="#137CDE"/>
<circle cx="268" cy="220" r="4" transform="rotate(90 268 220)" fill="#137CDE"/>
<circle cx="172" cy="220" r="4" transform="rotate(90 172 220)" fill="#137CDE"/>
<circle cx="148" cy="148" r="4" transform="rotate(90 148 148)" fill="#137CDE"/>
<circle cx="244" cy="220" r="4" transform="rotate(90 244 220)" fill="#137CDE"/>
<circle cx="292" cy="148" r="4" transform="rotate(90 292 148)" fill="#137CDE"/>
<circle cx="4" cy="148" r="4" transform="rotate(90 4 148)" fill="#137CDE"/>
<circle cx="340" cy="148" r="4" transform="rotate(90 340 148)" fill="#137CDE"/>
<circle cx="100" cy="148" r="4" transform="rotate(90 100 148)" fill="#137CDE"/>
<circle cx="196" cy="148" r="4" transform="rotate(90 196 148)" fill="#E4F053"/>
<circle cx="316" cy="148" r="4" transform="rotate(90 316 148)" fill="#137CDE"/>
<circle cx="364" cy="148" r="4" transform="rotate(90 364 148)" fill="#137CDE"/>
<circle cx="220" cy="148" r="4" transform="rotate(90 220 148)" fill="#137CDE"/>
<circle cx="172" cy="148" r="4" transform="rotate(90 172 148)" fill="#137CDE"/>
<circle cx="148" cy="196" r="4" transform="rotate(90 148 196)" fill="#137CDE"/>
<circle cx="292" cy="196" r="4" transform="rotate(90 292 196)" fill="#137CDE"/>
<circle cx="4" cy="196" r="4" transform="rotate(90 4 196)" fill="#137CDE"/>
<circle cx="340" cy="196" r="4" transform="rotate(90 340 196)" fill="#137CDE"/>
<circle cx="52" cy="196" r="4" transform="rotate(90 52 196)" fill="#137CDE"/>
<circle cx="100" cy="196" r="4" transform="rotate(90 100 196)" fill="#137CDE"/>
<circle cx="196" cy="196" r="4" transform="rotate(90 196 196)" fill="#137CDE"/>
<circle cx="316" cy="52" r="4" transform="rotate(90 316 52)" fill="#137CDE"/>
<circle cx="364" cy="52" r="4" transform="rotate(90 364 52)" fill="#137CDE"/>
<circle cx="364" cy="4" r="4" transform="rotate(90 364 4)" fill="#137CDE"/>
<circle cx="316" cy="196" r="4" transform="rotate(90 316 196)" fill="#137CDE"/>
<circle cx="28" cy="196" r="4" transform="rotate(90 28 196)" fill="#137CDE"/>
<circle cx="364" cy="196" r="4" transform="rotate(90 364 196)" fill="#137CDE"/>
<circle cx="76" cy="196" r="4" transform="rotate(90 76 196)" fill="#137CDE"/>
<circle cx="220" cy="196" r="4" transform="rotate(90 220 196)" fill="#137CDE"/>
<circle cx="268" cy="196" r="4" transform="rotate(90 268 196)" fill="#137CDE"/>
<circle cx="172" cy="196" r="4" transform="rotate(90 172 196)" fill="#137CDE"/>
<circle cx="148" cy="172" r="4" transform="rotate(90 148 172)" fill="#137CDE"/>
<circle cx="244" cy="244" r="4" transform="rotate(90 244 244)" fill="#137CDE"/>
<circle cx="292" cy="172" r="4" transform="rotate(90 292 172)" fill="#137CDE"/>
<circle cx="4" cy="172" r="4" transform="rotate(90 4 172)" fill="#137CDE"/>
<circle cx="340" cy="172" r="4" transform="rotate(90 340 172)" fill="#137CDE"/>
<circle cx="52" cy="172" r="4" transform="rotate(90 52 172)" fill="#137CDE"/>
<circle cx="100" cy="172" r="4" transform="rotate(90 100 172)" fill="#137CDE"/>
<circle cx="364" cy="28" r="4" transform="rotate(90 364 28)" fill="#E4F053"/>
<circle cx="196" cy="172" r="4" transform="rotate(90 196 172)" fill="#137CDE"/>
<circle cx="316" cy="172" r="4" transform="rotate(90 316 172)" fill="#137CDE"/>
<circle cx="28" cy="172" r="4" transform="rotate(90 28 172)" fill="#137CDE"/>
<circle cx="364" cy="172" r="4" transform="rotate(90 364 172)" fill="#E4F053"/>
<circle cx="220" cy="172" r="4" transform="rotate(90 220 172)" fill="#137CDE"/>
<circle cx="268" cy="172" r="4" transform="rotate(90 268 172)" fill="#137CDE"/>
<circle cx="172" cy="172" r="4" transform="rotate(90 172 172)" fill="#137CDE"/>
<circle cx="148" cy="244" r="4" transform="rotate(90 148 244)" fill="#137CDE"/>
<circle cx="292" cy="244" r="4" transform="rotate(90 292 244)" fill="#E4F053"/>
<circle cx="4" cy="244" r="4" transform="rotate(90 4 244)" fill="#137CDE"/>
<circle cx="340" cy="244" r="4" transform="rotate(90 340 244)" fill="#137CDE"/>
<circle cx="52" cy="244" r="4" transform="rotate(90 52 244)" fill="#E4F053"/>
<circle cx="292" cy="100" r="4" transform="rotate(90 292 100)" fill="#137CDE"/>
<circle cx="4" cy="100" r="4" transform="rotate(90 4 100)" fill="#137CDE"/>
<circle cx="340" cy="100" r="4" transform="rotate(90 340 100)" fill="#137CDE"/>
<circle cx="100" cy="244" r="4" transform="rotate(90 100 244)" fill="#137CDE"/>
<circle cx="196" cy="100" r="4" transform="rotate(90 196 100)" fill="#137CDE"/>
<circle cx="316" cy="244" r="4" transform="rotate(90 316 244)" fill="#137CDE"/>
<circle cx="28" cy="244" r="4" transform="rotate(90 28 244)" fill="#137CDE"/>
<circle cx="364" cy="244" r="4" transform="rotate(90 364 244)" fill="#137CDE"/>
<circle cx="76" cy="244" r="4" transform="rotate(90 76 244)" fill="#137CDE"/>
<circle cx="316" cy="100" r="4" transform="rotate(90 316 100)" fill="#137CDE"/>
<circle cx="364" cy="100" r="4" transform="rotate(90 364 100)" fill="#137CDE"/>
<circle cx="124" cy="244" r="4" transform="rotate(90 124 244)" fill="#137CDE"/>
<circle cx="220" cy="244" r="4" transform="rotate(90 220 244)" fill="#137CDE"/>
<circle cx="268" cy="244" r="4" transform="rotate(90 268 244)" fill="#137CDE"/>
<circle cx="172" cy="244" r="4" transform="rotate(90 172 244)" fill="#137CDE"/>
<circle cx="172" cy="100" r="4" transform="rotate(90 172 100)" fill="#137CDE"/>
<circle cx="148" cy="124" r="4" transform="rotate(90 148 124)" fill="#137CDE"/>
<circle cx="244" cy="196" r="4" transform="rotate(90 244 196)" fill="#137CDE"/>
<circle cx="292" cy="124" r="4" transform="rotate(90 292 124)" fill="#137CDE"/>
<circle cx="4" cy="124" r="4" transform="rotate(90 4 124)" fill="#137CDE"/>
<circle cx="340" cy="124" r="4" transform="rotate(90 340 124)" fill="#137CDE"/>
<circle cx="196" cy="124" r="4" transform="rotate(90 196 124)" fill="#137CDE"/>
<circle cx="316" cy="124" r="4" transform="rotate(90 316 124)" fill="#137CDE"/>
<circle cx="364" cy="124" r="4" transform="rotate(90 364 124)" fill="#137CDE"/>
<circle cx="220" cy="124" r="4" transform="rotate(90 220 124)" fill="#137CDE"/>
<circle cx="172" cy="124" r="4" transform="rotate(90 172 124)" fill="#137CDE"/>
</svg>
