<svg width="1330" height="387" viewBox="0 0 1330 387" fill="none" xmlns="http://www.w3.org/2000/svg">
<rect x="1330" y="387" width="1330" height="387" transform="rotate(-180 1330 387)" fill="#137CDE"/>
<circle cx="1089" cy="238" r="4" transform="rotate(90 1089 238)" fill="#12233B"/>
<circle cx="801" cy="238" r="4" transform="rotate(90 801 238)" fill="#12233B"/>
<circle cx="1233" cy="238" r="4" transform="rotate(90 1233 238)" fill="#12233B"/>
<circle cx="945" cy="238" r="4" transform="rotate(90 945 238)" fill="#12233B"/>
<circle cx="1281" cy="238" r="4" transform="rotate(90 1281 238)" fill="#12233B"/>
<circle cx="993" cy="238" r="4" transform="rotate(90 993 238)" fill="#12233B"/>
<circle cx="1041" cy="238" r="4" transform="rotate(90 1041 238)" fill="#12233B"/>
<circle cx="1137" cy="94" r="4" transform="rotate(90 1137 94)" fill="#12233B"/>
<circle cx="1137" cy="238" r="4" transform="rotate(90 1137 238)" fill="#12233B"/>
<circle cx="849" cy="238" r="4" transform="rotate(90 849 238)" fill="#12233B"/>
<circle cx="1257" cy="94" r="4" transform="rotate(90 1257 94)" fill="#12233B"/>
<circle cx="1305" cy="94" r="4" transform="rotate(90 1305 94)" fill="#12233B"/>
<circle cx="1257" cy="238" r="4" transform="rotate(90 1257 238)" fill="#12233B"/>
<circle cx="969" cy="238" r="4" transform="rotate(90 969 238)" fill="#12233B"/>
<circle cx="1305" cy="238" r="4" transform="rotate(90 1305 238)" fill="#12233B"/>
<circle cx="1017" cy="238" r="4" transform="rotate(90 1017 238)" fill="#12233B"/>
<circle cx="1161" cy="238" r="4" transform="rotate(90 1161 238)" fill="#12233B"/>
<circle cx="873" cy="238" r="4" transform="rotate(90 873 238)" fill="#12233B"/>
<circle cx="1209" cy="238" r="4" transform="rotate(90 1209 238)" fill="#12233B"/>
<circle cx="921" cy="238" r="4" transform="rotate(90 921 238)" fill="#12233B"/>
<circle cx="1113" cy="94" r="4" transform="rotate(90 1113 94)" fill="#12233B"/>
<circle cx="1113" cy="238" r="4" transform="rotate(90 1113 238)" fill="#12233B"/>
<circle cx="825" cy="238" r="4" transform="rotate(90 825 238)" fill="#12233B"/>
<circle cx="1089" cy="310" r="4" transform="rotate(90 1089 310)" fill="#12233B"/>
<circle cx="801" cy="310" r="4" transform="rotate(90 801 310)" fill="#12233B"/>
<circle cx="657" cy="310" r="4" transform="rotate(90 657 310)" fill="#12233B"/>
<circle cx="561" cy="310" r="4" transform="rotate(90 561 310)" fill="#12233B"/>
<circle cx="1089" cy="166" r="4" transform="rotate(90 1089 166)" fill="#12233B"/>
<circle cx="1185" cy="310" r="4" transform="rotate(90 1185 310)" fill="#12233B"/>
<circle cx="1185" cy="238" r="4" transform="rotate(90 1185 238)" fill="#12233B"/>
<circle cx="897" cy="310" r="4" transform="rotate(90 897 310)" fill="#12233B"/>
<circle cx="1233" cy="310" r="4" transform="rotate(90 1233 310)" fill="#12233B"/>
<circle cx="945" cy="310" r="4" transform="rotate(90 945 310)" fill="#12233B"/>
<circle cx="1281" cy="310" r="4" transform="rotate(90 1281 310)" fill="#12233B"/>
<circle cx="993" cy="310" r="4" transform="rotate(90 993 310)" fill="#12233B"/>
<circle cx="1233" cy="166" r="4" transform="rotate(90 1233 166)" fill="#12233B"/>
<circle cx="945" cy="166" r="4" transform="rotate(90 945 166)" fill="#12233B"/>
<circle cx="1281" cy="166" r="4" transform="rotate(90 1281 166)" fill="#12233B"/>
<circle cx="1041" cy="310" r="4" transform="rotate(90 1041 310)" fill="#12233B"/>
<circle cx="753" cy="310" r="4" transform="rotate(90 753 310)" fill="#12233B"/>
<circle cx="609" cy="310" r="4" transform="rotate(90 609 310)" fill="#12233B"/>
<circle cx="513" cy="310" r="4" transform="rotate(90 513 310)" fill="#12233B"/>
<circle cx="1041" cy="166" r="4" transform="rotate(90 1041 166)" fill="#12233B"/>
<circle cx="1137" cy="310" r="4" transform="rotate(90 1137 310)" fill="#12233B"/>
<circle cx="849" cy="310" r="4" transform="rotate(90 849 310)" fill="#12233B"/>
<circle cx="705" cy="310" r="4" transform="rotate(90 705 310)" fill="#12233B"/>
<circle cx="1137" cy="166" r="4" transform="rotate(90 1137 166)" fill="#12233B"/>
<circle cx="849" cy="166" r="4" transform="rotate(90 849 166)" fill="#12233B"/>
<circle cx="1257" cy="310" r="4" transform="rotate(90 1257 310)" fill="#12233B"/>
<circle cx="969" cy="310" r="4" transform="rotate(90 969 310)" fill="#12233B"/>
<circle cx="1305" cy="310" r="4" transform="rotate(90 1305 310)" fill="#12233B"/>
<circle cx="1017" cy="310" r="4" transform="rotate(90 1017 310)" fill="#E4F053"/>
<circle cx="1257" cy="166" r="4" transform="rotate(90 1257 166)" fill="#12233B"/>
<circle cx="1305" cy="166" r="4" transform="rotate(90 1305 166)" fill="#12233B"/>
<circle cx="1065" cy="310" r="4" transform="rotate(90 1065 310)" fill="#12233B"/>
<circle cx="777" cy="310" r="4" transform="rotate(90 777 310)" fill="#12233B"/>
<circle cx="1161" cy="310" r="4" transform="rotate(90 1161 310)" fill="#12233B"/>
<circle cx="873" cy="310" r="4" transform="rotate(90 873 310)" fill="#12233B"/>
<circle cx="729" cy="310" r="4" transform="rotate(90 729 310)" fill="#12233B"/>
<circle cx="1161" cy="166" r="4" transform="rotate(90 1161 166)" fill="#12233B"/>
<circle cx="873" cy="166" r="4" transform="rotate(90 873 166)" fill="#12233B"/>
<circle cx="1209" cy="310" r="4" transform="rotate(90 1209 310)" fill="#12233B"/>
<circle cx="921" cy="310" r="4" transform="rotate(90 921 310)" fill="#12233B"/>
<circle cx="1113" cy="310" r="4" transform="rotate(90 1113 310)" fill="#12233B"/>
<circle cx="825" cy="310" r="4" transform="rotate(90 825 310)" fill="#12233B"/>
<circle cx="681" cy="310" r="4" transform="rotate(90 681 310)" fill="#12233B"/>
<circle cx="1113" cy="166" r="4" transform="rotate(90 1113 166)" fill="#12233B"/>
<circle cx="1089" cy="358" r="4" transform="rotate(90 1089 358)" fill="#12233B"/>
<circle cx="801" cy="358" r="4" transform="rotate(90 801 358)" fill="#12233B"/>
<circle cx="657" cy="358" r="4" transform="rotate(90 657 358)" fill="#12233B"/>
<circle cx="561" cy="358" r="4" transform="rotate(90 561 358)" fill="#12233B"/>
<circle cx="1089" cy="214" r="4" transform="rotate(90 1089 214)" fill="#12233B"/>
<circle cx="801" cy="214" r="4" transform="rotate(90 801 214)" fill="#12233B"/>
<circle cx="1185" cy="358" r="4" transform="rotate(90 1185 358)" fill="#12233B"/>
<circle cx="897" cy="358" r="4" transform="rotate(90 897 358)" fill="#12233B"/>
<circle cx="1233" cy="358" r="4" transform="rotate(90 1233 358)" fill="#12233B"/>
<circle cx="945" cy="358" r="4" transform="rotate(90 945 358)" fill="#12233B"/>
<circle cx="1281" cy="358" r="4" transform="rotate(90 1281 358)" fill="#12233B"/>
<circle cx="993" cy="358" r="4" transform="rotate(90 993 358)" fill="#12233B"/>
<circle cx="1233" cy="214" r="4" transform="rotate(90 1233 214)" fill="#12233B"/>
<circle cx="945" cy="214" r="4" transform="rotate(90 945 214)" fill="#12233B"/>
<circle cx="1281" cy="214" r="4" transform="rotate(90 1281 214)" fill="#12233B"/>
<circle cx="993" cy="214" r="4" transform="rotate(90 993 214)" fill="#12233B"/>
<circle cx="1041" cy="358" r="4" transform="rotate(90 1041 358)" fill="#12233B"/>
<circle cx="753" cy="358" r="4" transform="rotate(90 753 358)" fill="#12233B"/>
<circle cx="609" cy="358" r="4" transform="rotate(90 609 358)" fill="#12233B"/>
<circle cx="513" cy="358" r="4" transform="rotate(90 513 358)" fill="#12233B"/>
<circle cx="489" cy="358" r="4" transform="rotate(90 489 358)" fill="#12233B"/>
<circle cx="1041" cy="214" r="4" transform="rotate(90 1041 214)" fill="#12233B"/>
<circle cx="1137" cy="70" r="4" transform="rotate(90 1137 70)" fill="#12233B"/>
<circle cx="1137" cy="358" r="4" transform="rotate(90 1137 358)" fill="#12233B"/>
<circle cx="849" cy="358" r="4" transform="rotate(90 849 358)" fill="#12233B"/>
<circle cx="705" cy="358" r="4" transform="rotate(90 705 358)" fill="#12233B"/>
<circle cx="1137" cy="214" r="4" transform="rotate(90 1137 214)" fill="#12233B"/>
<circle cx="849" cy="214" r="4" transform="rotate(90 849 214)" fill="#12233B"/>
<circle cx="1257" cy="70" r="4" transform="rotate(90 1257 70)" fill="#12233B"/>
<circle cx="1305" cy="70" r="4" transform="rotate(90 1305 70)" fill="#12233B"/>
<circle cx="1257" cy="358" r="4" transform="rotate(90 1257 358)" fill="#12233B"/>
<circle cx="969" cy="358" r="4" transform="rotate(90 969 358)" fill="#12233B"/>
<circle cx="1305" cy="358" r="4" transform="rotate(90 1305 358)" fill="#12233B"/>
<circle cx="1017" cy="358" r="4" transform="rotate(90 1017 358)" fill="#12233B"/>
<circle cx="1257" cy="214" r="4" transform="rotate(90 1257 214)" fill="#12233B"/>
<circle cx="969" cy="214" r="4" transform="rotate(90 969 214)" fill="#12233B"/>
<circle cx="1305" cy="214" r="4" transform="rotate(90 1305 214)" fill="#12233B"/>
<circle cx="1017" cy="214" r="4" transform="rotate(90 1017 214)" fill="#12233B"/>
<circle cx="1065" cy="358" r="4" transform="rotate(90 1065 358)" fill="#12233B"/>
<circle cx="777" cy="358" r="4" transform="rotate(90 777 358)" fill="#12233B"/>
<circle cx="633" cy="358" r="4" transform="rotate(90 633 358)" fill="#12233B"/>
<circle cx="537" cy="358" r="4" transform="rotate(90 537 358)" fill="#12233B"/>
<circle cx="1161" cy="358" r="4" transform="rotate(90 1161 358)" fill="#12233B"/>
<circle cx="873" cy="358" r="4" transform="rotate(90 873 358)" fill="#12233B"/>
<circle cx="729" cy="358" r="4" transform="rotate(90 729 358)" fill="#12233B"/>
<circle cx="1161" cy="214" r="4" transform="rotate(90 1161 214)" fill="#12233B"/>
<circle cx="873" cy="214" r="4" transform="rotate(90 873 214)" fill="#12233B"/>
<circle cx="1209" cy="358" r="4" transform="rotate(90 1209 358)" fill="#12233B"/>
<circle cx="921" cy="358" r="4" transform="rotate(90 921 358)" fill="#12233B"/>
<circle cx="1209" cy="214" r="4" transform="rotate(90 1209 214)" fill="#12233B"/>
<circle cx="921" cy="214" r="4" transform="rotate(90 921 214)" fill="#12233B"/>
<circle cx="585" cy="358" r="4" transform="rotate(90 585 358)" fill="#12233B"/>
<circle cx="489" cy="358" r="4" transform="rotate(90 489 358)" fill="#12233B"/>
<circle cx="465" cy="358" r="4" transform="rotate(90 465 358)" fill="#12233B"/>
<circle cx="1113" cy="70" r="4" transform="rotate(90 1113 70)" fill="#12233B"/>
<circle cx="1113" cy="358" r="4" transform="rotate(90 1113 358)" fill="#12233B"/>
<circle cx="825" cy="358" r="4" transform="rotate(90 825 358)" fill="#12233B"/>
<circle cx="681" cy="358" r="4" transform="rotate(90 681 358)" fill="#12233B"/>
<circle cx="1113" cy="214" r="4" transform="rotate(90 1113 214)" fill="#12233B"/>
<circle cx="825" cy="214" r="4" transform="rotate(90 825 214)" fill="#12233B"/>
<circle cx="1089" cy="334" r="4" transform="rotate(90 1089 334)" fill="#12233B"/>
<circle cx="801" cy="334" r="4" transform="rotate(90 801 334)" fill="#12233B"/>
<circle cx="657" cy="334" r="4" transform="rotate(90 657 334)" fill="#12233B"/>
<circle cx="561" cy="334" r="4" transform="rotate(90 561 334)" fill="#12233B"/>
<circle cx="1089" cy="190" r="4" transform="rotate(90 1089 190)" fill="#12233B"/>
<circle cx="1185" cy="334" r="4" transform="rotate(90 1185 334)" fill="#12233B"/>
<circle cx="1185" cy="262" r="4" transform="rotate(90 1185 262)" fill="#12233B"/>
<circle cx="897" cy="334" r="4" transform="rotate(90 897 334)" fill="#12233B"/>
<circle cx="1233" cy="334" r="4" transform="rotate(90 1233 334)" fill="#12233B"/>
<circle cx="945" cy="334" r="4" transform="rotate(90 945 334)" fill="#12233B"/>
<circle cx="1281" cy="334" r="4" transform="rotate(90 1281 334)" fill="#12233B"/>
<circle cx="993" cy="334" r="4" transform="rotate(90 993 334)" fill="#12233B"/>
<circle cx="1233" cy="190" r="4" transform="rotate(90 1233 190)" fill="#12233B"/>
<circle cx="945" cy="190" r="4" transform="rotate(90 945 190)" fill="#12233B"/>
<circle cx="1281" cy="190" r="4" transform="rotate(90 1281 190)" fill="#12233B"/>
<circle cx="993" cy="190" r="4" transform="rotate(90 993 190)" fill="#12233B"/>
<circle cx="1041" cy="334" r="4" transform="rotate(90 1041 334)" fill="#12233B"/>
<circle cx="753" cy="334" r="4" transform="rotate(90 753 334)" fill="#12233B"/>
<circle cx="609" cy="334" r="4" transform="rotate(90 609 334)" fill="#E4F053"/>
<circle cx="513" cy="334" r="4" transform="rotate(90 513 334)" fill="#12233B"/>
<circle cx="489" cy="334" r="4" transform="rotate(90 489 334)" fill="#12233B"/>
<circle cx="1041" cy="190" r="4" transform="rotate(90 1041 190)" fill="#E4F053"/>
<circle cx="1137" cy="46" r="4" transform="rotate(90 1137 46)" fill="#12233B"/>
<circle cx="1137" cy="334" r="4" transform="rotate(90 1137 334)" fill="#12233B"/>
<circle cx="849" cy="334" r="4" transform="rotate(90 849 334)" fill="#12233B"/>
<circle cx="705" cy="334" r="4" transform="rotate(90 705 334)" fill="#12233B"/>
<circle cx="1137" cy="190" r="4" transform="rotate(90 1137 190)" fill="#12233B"/>
<circle cx="849" cy="190" r="4" transform="rotate(90 849 190)" fill="#12233B"/>
<circle cx="1257" cy="334" r="4" transform="rotate(90 1257 334)" fill="#12233B"/>
<circle cx="969" cy="334" r="4" transform="rotate(90 969 334)" fill="#12233B"/>
<circle cx="1305" cy="334" r="4" transform="rotate(90 1305 334)" fill="#12233B"/>
<circle cx="1017" cy="334" r="4" transform="rotate(90 1017 334)" fill="#12233B"/>
<circle cx="1257" cy="190" r="4" transform="rotate(90 1257 190)" fill="#12233B"/>
<circle cx="969" cy="190" r="4" transform="rotate(90 969 190)" fill="#12233B"/>
<circle cx="1305" cy="190" r="4" transform="rotate(90 1305 190)" fill="#12233B"/>
<circle cx="1065" cy="334" r="4" transform="rotate(90 1065 334)" fill="#12233B"/>
<circle cx="777" cy="334" r="4" transform="rotate(90 777 334)" fill="#12233B"/>
<circle cx="633" cy="334" r="4" transform="rotate(90 633 334)" fill="#12233B"/>
<circle cx="537" cy="334" r="4" transform="rotate(90 537 334)" fill="#12233B"/>
<circle cx="1161" cy="334" r="4" transform="rotate(90 1161 334)" fill="#12233B"/>
<circle cx="873" cy="334" r="4" transform="rotate(90 873 334)" fill="#12233B"/>
<circle cx="729" cy="334" r="4" transform="rotate(90 729 334)" fill="#12233B"/>
<circle cx="1161" cy="190" r="4" transform="rotate(90 1161 190)" fill="#12233B"/>
<circle cx="873" cy="190" r="4" transform="rotate(90 873 190)" fill="#12233B"/>
<circle cx="1209" cy="334" r="4" transform="rotate(90 1209 334)" fill="#12233B"/>
<circle cx="921" cy="334" r="4" transform="rotate(90 921 334)" fill="#12233B"/>
<circle cx="1209" cy="190" r="4" transform="rotate(90 1209 190)" fill="#12233B"/>
<circle cx="921" cy="190" r="4" transform="rotate(90 921 190)" fill="#12233B"/>
<circle cx="585" cy="334" r="4" transform="rotate(90 585 334)" fill="#12233B"/>
<circle cx="1113" cy="334" r="4" transform="rotate(90 1113 334)" fill="#12233B"/>
<circle cx="825" cy="334" r="4" transform="rotate(90 825 334)" fill="#12233B"/>
<circle cx="681" cy="334" r="4" transform="rotate(90 681 334)" fill="#12233B"/>
<circle cx="1113" cy="190" r="4" transform="rotate(90 1113 190)" fill="#12233B"/>
<circle cx="1089" cy="262" r="4" transform="rotate(90 1089 262)" fill="#12233B"/>
<circle cx="801" cy="262" r="4" transform="rotate(90 801 262)" fill="#12233B"/>
<circle cx="1233" cy="262" r="4" transform="rotate(90 1233 262)" fill="#12233B"/>
<circle cx="945" cy="262" r="4" transform="rotate(90 945 262)" fill="#12233B"/>
<circle cx="1281" cy="262" r="4" transform="rotate(90 1281 262)" fill="#12233B"/>
<circle cx="993" cy="262" r="4" transform="rotate(90 993 262)" fill="#12233B"/>
<circle cx="1233" cy="118" r="4" transform="rotate(90 1233 118)" fill="#12233B"/>
<circle cx="945" cy="118" r="4" transform="rotate(90 945 118)" fill="#12233B"/>
<circle cx="1281" cy="118" r="4" transform="rotate(90 1281 118)" fill="#12233B"/>
<circle cx="1041" cy="262" r="4" transform="rotate(90 1041 262)" fill="#12233B"/>
<circle cx="753" cy="262" r="4" transform="rotate(90 753 262)" fill="#12233B"/>
<circle cx="1137" cy="262" r="4" transform="rotate(90 1137 262)" fill="#12233B"/>
<circle cx="849" cy="262" r="4" transform="rotate(90 849 262)" fill="#E4F053"/>
<circle cx="1137" cy="118" r="4" transform="rotate(90 1137 118)" fill="#12233B"/>
<circle cx="1257" cy="262" r="4" transform="rotate(90 1257 262)" fill="#12233B"/>
<circle cx="969" cy="262" r="4" transform="rotate(90 969 262)" fill="#12233B"/>
<circle cx="1305" cy="262" r="4" transform="rotate(90 1305 262)" fill="#12233B"/>
<circle cx="1017" cy="262" r="4" transform="rotate(90 1017 262)" fill="#12233B"/>
<circle cx="1257" cy="118" r="4" transform="rotate(90 1257 118)" fill="#E4F053"/>
<circle cx="1305" cy="118" r="4" transform="rotate(90 1305 118)" fill="#12233B"/>
<circle cx="1065" cy="262" r="4" transform="rotate(90 1065 262)" fill="#12233B"/>
<circle cx="777" cy="262" r="4" transform="rotate(90 777 262)" fill="#12233B"/>
<circle cx="1161" cy="262" r="4" transform="rotate(90 1161 262)" fill="#12233B"/>
<circle cx="873" cy="262" r="4" transform="rotate(90 873 262)" fill="#12233B"/>
<circle cx="1209" cy="262" r="4" transform="rotate(90 1209 262)" fill="#E4F053"/>
<circle cx="921" cy="262" r="4" transform="rotate(90 921 262)" fill="#12233B"/>
<circle cx="1113" cy="262" r="4" transform="rotate(90 1113 262)" fill="#12233B"/>
<circle cx="825" cy="262" r="4" transform="rotate(90 825 262)" fill="#12233B"/>
<circle cx="681" cy="262" r="4" transform="rotate(90 681 262)" fill="#12233B"/>
<circle cx="1113" cy="118" r="4" transform="rotate(90 1113 118)" fill="#12233B"/>
<circle cx="1089" cy="286" r="4" transform="rotate(90 1089 286)" fill="#12233B"/>
<circle cx="801" cy="286" r="4" transform="rotate(90 801 286)" fill="#12233B"/>
<circle cx="1089" cy="142" r="4" transform="rotate(90 1089 142)" fill="#12233B"/>
<circle cx="1185" cy="286" r="4" transform="rotate(90 1185 286)" fill="#12233B"/>
<circle cx="1185" cy="214" r="4" transform="rotate(90 1185 214)" fill="#12233B"/>
<circle cx="897" cy="286" r="4" transform="rotate(90 897 286)" fill="#12233B"/>
<circle cx="1233" cy="286" r="4" transform="rotate(90 1233 286)" fill="#12233B"/>
<circle cx="945" cy="286" r="4" transform="rotate(90 945 286)" fill="#12233B"/>
<circle cx="1281" cy="286" r="4" transform="rotate(90 1281 286)" fill="#12233B"/>
<circle cx="993" cy="286" r="4" transform="rotate(90 993 286)" fill="#12233B"/>
<circle cx="1233" cy="142" r="4" transform="rotate(90 1233 142)" fill="#12233B"/>
<circle cx="945" cy="142" r="4" transform="rotate(90 945 142)" fill="#12233B"/>
<circle cx="1281" cy="142" r="4" transform="rotate(90 1281 142)" fill="#12233B"/>
<circle cx="1041" cy="286" r="4" transform="rotate(90 1041 286)" fill="#12233B"/>
<circle cx="753" cy="286" r="4" transform="rotate(90 753 286)" fill="#E4F053"/>
<circle cx="1137" cy="286" r="4" transform="rotate(90 1137 286)" fill="#12233B"/>
<circle cx="849" cy="286" r="4" transform="rotate(90 849 286)" fill="#12233B"/>
<circle cx="1137" cy="142" r="4" transform="rotate(90 1137 142)" fill="#12233B"/>
<circle cx="1257" cy="286" r="4" transform="rotate(90 1257 286)" fill="#12233B"/>
<circle cx="969" cy="286" r="4" transform="rotate(90 969 286)" fill="#12233B"/>
<circle cx="1305" cy="286" r="4" transform="rotate(90 1305 286)" fill="#12233B"/>
<circle cx="1017" cy="286" r="4" transform="rotate(90 1017 286)" fill="#12233B"/>
<circle cx="1257" cy="142" r="4" transform="rotate(90 1257 142)" fill="#12233B"/>
<circle cx="1305" cy="142" r="4" transform="rotate(90 1305 142)" fill="#12233B"/>
<circle cx="1065" cy="286" r="4" transform="rotate(90 1065 286)" fill="#12233B"/>
<circle cx="777" cy="286" r="4" transform="rotate(90 777 286)" fill="#12233B"/>
<circle cx="1161" cy="286" r="4" transform="rotate(90 1161 286)" fill="#12233B"/>
<circle cx="873" cy="286" r="4" transform="rotate(90 873 286)" fill="#12233B"/>
<circle cx="1161" cy="142" r="4" transform="rotate(90 1161 142)" fill="#12233B"/>
<circle cx="873" cy="142" r="4" transform="rotate(90 873 142)" fill="#12233B"/>
<circle cx="1209" cy="286" r="4" transform="rotate(90 1209 286)" fill="#12233B"/>
<circle cx="921" cy="286" r="4" transform="rotate(90 921 286)" fill="#12233B"/>
<circle cx="1113" cy="286" r="4" transform="rotate(90 1113 286)" fill="#12233B"/>
<circle cx="825" cy="286" r="4" transform="rotate(90 825 286)" fill="#12233B"/>
<circle cx="681" cy="286" r="4" transform="rotate(90 681 286)" fill="#12233B"/>
<circle cx="513" cy="286" r="4" transform="rotate(90 513 286)" fill="#12233B"/>
<circle cx="1113" cy="142" r="4" transform="rotate(90 1113 142)" fill="#12233B"/>
</svg>
