<svg width="414" height="420" viewBox="0 0 414 420" fill="none" xmlns="http://www.w3.org/2000/svg">
<rect x="414" y="420" width="414" height="420" transform="rotate(-180 414 420)" fill="#137CDE"/>
<circle cx="172" cy="233" r="4" transform="rotate(90 172 233)" fill="#12233B"/>
<circle cx="316" cy="233" r="4" transform="rotate(90 316 233)" fill="#12233B"/>
<circle cx="28" cy="233" r="4" transform="rotate(90 28 233)" fill="#12233B"/>
<circle cx="364" cy="233" r="4" transform="rotate(90 364 233)" fill="#12233B"/>
<circle cx="76" cy="233" r="4" transform="rotate(90 76 233)" fill="#12233B"/>
<circle cx="124" cy="233" r="4" transform="rotate(90 124 233)" fill="#12233B"/>
<circle cx="220" cy="89" r="4" transform="rotate(90 220 89)" fill="#12233B"/>
<circle cx="220" cy="233" r="4" transform="rotate(90 220 233)" fill="#12233B"/>
<circle cx="340" cy="89" r="4" transform="rotate(90 340 89)" fill="#12233B"/>
<circle cx="388" cy="89" r="4" transform="rotate(90 388 89)" fill="#12233B"/>
<circle cx="340" cy="233" r="4" transform="rotate(90 340 233)" fill="#12233B"/>
<circle cx="52" cy="233" r="4" transform="rotate(90 52 233)" fill="#12233B"/>
<circle cx="388" cy="233" r="4" transform="rotate(90 388 233)" fill="#12233B"/>
<circle cx="100" cy="233" r="4" transform="rotate(90 100 233)" fill="#12233B"/>
<circle cx="244" cy="233" r="4" transform="rotate(90 244 233)" fill="#12233B"/>
<circle cx="292" cy="233" r="4" transform="rotate(90 292 233)" fill="#12233B"/>
<circle cx="196" cy="89" r="4" transform="rotate(90 196 89)" fill="#12233B"/>
<circle cx="196" cy="233" r="4" transform="rotate(90 196 233)" fill="#12233B"/>
<circle cx="172" cy="305" r="4" transform="rotate(90 172 305)" fill="#12233B"/>
<circle cx="172" cy="161" r="4" transform="rotate(90 172 161)" fill="#12233B"/>
<circle cx="268" cy="305" r="4" transform="rotate(90 268 305)" fill="#12233B"/>
<circle cx="268" cy="233" r="4" transform="rotate(90 268 233)" fill="#12233B"/>
<circle cx="316" cy="305" r="4" transform="rotate(90 316 305)" fill="#12233B"/>
<circle cx="28" cy="305" r="4" transform="rotate(90 28 305)" fill="#12233B"/>
<circle cx="364" cy="305" r="4" transform="rotate(90 364 305)" fill="#12233B"/>
<circle cx="76" cy="305" r="4" transform="rotate(90 76 305)" fill="#12233B"/>
<circle cx="316" cy="161" r="4" transform="rotate(90 316 161)" fill="#12233B"/>
<circle cx="28" cy="161" r="4" transform="rotate(90 28 161)" fill="#12233B"/>
<circle cx="364" cy="161" r="4" transform="rotate(90 364 161)" fill="#12233B"/>
<circle cx="124" cy="305" r="4" transform="rotate(90 124 305)" fill="#12233B"/>
<circle cx="124" cy="161" r="4" transform="rotate(90 124 161)" fill="#12233B"/>
<circle cx="220" cy="305" r="4" transform="rotate(90 220 305)" fill="#12233B"/>
<circle cx="220" cy="161" r="4" transform="rotate(90 220 161)" fill="#12233B"/>
<circle cx="340" cy="305" r="4" transform="rotate(90 340 305)" fill="#12233B"/>
<circle cx="52" cy="305" r="4" transform="rotate(90 52 305)" fill="#12233B"/>
<circle cx="388" cy="305" r="4" transform="rotate(90 388 305)" fill="#12233B"/>
<circle cx="100" cy="305" r="4" transform="rotate(90 100 305)" fill="#12233B"/>
<circle cx="340" cy="161" r="4" transform="rotate(90 340 161)" fill="#12233B"/>
<circle cx="388" cy="161" r="4" transform="rotate(90 388 161)" fill="#12233B"/>
<circle cx="148" cy="305" r="4" transform="rotate(90 148 305)" fill="#12233B"/>
<circle cx="244" cy="305" r="4" transform="rotate(90 244 305)" fill="#12233B"/>
<circle cx="244" cy="161" r="4" transform="rotate(90 244 161)" fill="#12233B"/>
<circle cx="292" cy="305" r="4" transform="rotate(90 292 305)" fill="#12233B"/>
<circle cx="196" cy="305" r="4" transform="rotate(90 196 305)" fill="#12233B"/>
<circle cx="196" cy="161" r="4" transform="rotate(90 196 161)" fill="#12233B"/>
<circle cx="172" cy="209" r="4" transform="rotate(90 172 209)" fill="#12233B"/>
<circle cx="316" cy="209" r="4" transform="rotate(90 316 209)" fill="#12233B"/>
<circle cx="28" cy="209" r="4" transform="rotate(90 28 209)" fill="#12233B"/>
<circle cx="364" cy="209" r="4" transform="rotate(90 364 209)" fill="#12233B"/>
<circle cx="76" cy="209" r="4" transform="rotate(90 76 209)" fill="#12233B"/>
<circle cx="124" cy="209" r="4" transform="rotate(90 124 209)" fill="#12233B"/>
<circle cx="220" cy="65" r="4" transform="rotate(90 220 65)" fill="#12233B"/>
<circle cx="220" cy="209" r="4" transform="rotate(90 220 209)" fill="#12233B"/>
<circle cx="340" cy="65" r="4" transform="rotate(90 340 65)" fill="#12233B"/>
<circle cx="388" cy="65" r="4" transform="rotate(90 388 65)" fill="#12233B"/>
<circle cx="340" cy="209" r="4" transform="rotate(90 340 209)" fill="#12233B"/>
<circle cx="52" cy="209" r="4" transform="rotate(90 52 209)" fill="#12233B"/>
<circle cx="388" cy="209" r="4" transform="rotate(90 388 209)" fill="#12233B"/>
<circle cx="100" cy="209" r="4" transform="rotate(90 100 209)" fill="#12233B"/>
<circle cx="244" cy="209" r="4" transform="rotate(90 244 209)" fill="#12233B"/>
<circle cx="292" cy="209" r="4" transform="rotate(90 292 209)" fill="#12233B"/>
<circle cx="196" cy="65" r="4" transform="rotate(90 196 65)" fill="#12233B"/>
<circle cx="196" cy="209" r="4" transform="rotate(90 196 209)" fill="#12233B"/>
<circle cx="172" cy="329" r="4" transform="rotate(90 172 329)" fill="#12233B"/>
<circle cx="172" cy="185" r="4" transform="rotate(90 172 185)" fill="#12233B"/>
<circle cx="268" cy="329" r="4" transform="rotate(90 268 329)" fill="#12233B"/>
<circle cx="268" cy="257" r="4" transform="rotate(90 268 257)" fill="#12233B"/>
<circle cx="316" cy="329" r="4" transform="rotate(90 316 329)" fill="#12233B"/>
<circle cx="28" cy="329" r="4" transform="rotate(90 28 329)" fill="#12233B"/>
<circle cx="364" cy="329" r="4" transform="rotate(90 364 329)" fill="#E4F053"/>
<circle cx="76" cy="329" r="4" transform="rotate(90 76 329)" fill="#12233B"/>
<circle cx="316" cy="185" r="4" transform="rotate(90 316 185)" fill="#12233B"/>
<circle cx="28" cy="185" r="4" transform="rotate(90 28 185)" fill="#12233B"/>
<circle cx="364" cy="185" r="4" transform="rotate(90 364 185)" fill="#12233B"/>
<circle cx="76" cy="185" r="4" transform="rotate(90 76 185)" fill="#12233B"/>
<circle cx="124" cy="329" r="4" transform="rotate(90 124 329)" fill="#12233B"/>
<circle cx="124" cy="185" r="4" transform="rotate(90 124 185)" fill="#E4F053"/>
<circle cx="220" cy="41" r="4" transform="rotate(90 220 41)" fill="#12233B"/>
<circle cx="220" cy="329" r="4" transform="rotate(90 220 329)" fill="#12233B"/>
<circle cx="220" cy="185" r="4" transform="rotate(90 220 185)" fill="#12233B"/>
<circle cx="340" cy="329" r="4" transform="rotate(90 340 329)" fill="#12233B"/>
<circle cx="52" cy="329" r="4" transform="rotate(90 52 329)" fill="#12233B"/>
<circle cx="388" cy="329" r="4" transform="rotate(90 388 329)" fill="#12233B"/>
<circle cx="100" cy="329" r="4" transform="rotate(90 100 329)" fill="#12233B"/>
<circle cx="340" cy="185" r="4" transform="rotate(90 340 185)" fill="#12233B"/>
<circle cx="52" cy="185" r="4" transform="rotate(90 52 185)" fill="#12233B"/>
<circle cx="388" cy="185" r="4" transform="rotate(90 388 185)" fill="#12233B"/>
<circle cx="148" cy="329" r="4" transform="rotate(90 148 329)" fill="#12233B"/>
<circle cx="244" cy="329" r="4" transform="rotate(90 244 329)" fill="#12233B"/>
<circle cx="244" cy="185" r="4" transform="rotate(90 244 185)" fill="#12233B"/>
<circle cx="292" cy="329" r="4" transform="rotate(90 292 329)" fill="#12233B"/>
<circle cx="292" cy="185" r="4" transform="rotate(90 292 185)" fill="#12233B"/>
<circle cx="196" cy="329" r="4" transform="rotate(90 196 329)" fill="#12233B"/>
<circle cx="196" cy="185" r="4" transform="rotate(90 196 185)" fill="#12233B"/>
<circle cx="172" cy="257" r="4" transform="rotate(90 172 257)" fill="#12233B"/>
<circle cx="316" cy="257" r="4" transform="rotate(90 316 257)" fill="#12233B"/>
<circle cx="28" cy="257" r="4" transform="rotate(90 28 257)" fill="#12233B"/>
<circle cx="364" cy="257" r="4" transform="rotate(90 364 257)" fill="#12233B"/>
<circle cx="76" cy="257" r="4" transform="rotate(90 76 257)" fill="#12233B"/>
<circle cx="316" cy="113" r="4" transform="rotate(90 316 113)" fill="#12233B"/>
<circle cx="28" cy="113" r="4" transform="rotate(90 28 113)" fill="#12233B"/>
<circle cx="364" cy="113" r="4" transform="rotate(90 364 113)" fill="#12233B"/>
<circle cx="124" cy="257" r="4" transform="rotate(90 124 257)" fill="#12233B"/>
<circle cx="220" cy="257" r="4" transform="rotate(90 220 257)" fill="#12233B"/>
<circle cx="220" cy="113" r="4" transform="rotate(90 220 113)" fill="#12233B"/>
<circle cx="340" cy="257" r="4" transform="rotate(90 340 257)" fill="#12233B"/>
<circle cx="52" cy="257" r="4" transform="rotate(90 52 257)" fill="#12233B"/>
<circle cx="388" cy="257" r="4" transform="rotate(90 388 257)" fill="#12233B"/>
<circle cx="100" cy="257" r="4" transform="rotate(90 100 257)" fill="#12233B"/>
<circle cx="340" cy="113" r="4" transform="rotate(90 340 113)" fill="#E4F053"/>
<circle cx="388" cy="113" r="4" transform="rotate(90 388 113)" fill="#12233B"/>
<circle cx="148" cy="257" r="4" transform="rotate(90 148 257)" fill="#12233B"/>
<circle cx="244" cy="257" r="4" transform="rotate(90 244 257)" fill="#12233B"/>
<circle cx="292" cy="257" r="4" transform="rotate(90 292 257)" fill="#E4F053"/>
<circle cx="196" cy="257" r="4" transform="rotate(90 196 257)" fill="#12233B"/>
<circle cx="196" cy="113" r="4" transform="rotate(90 196 113)" fill="#12233B"/>
<circle cx="172" cy="281" r="4" transform="rotate(90 172 281)" fill="#12233B"/>
<circle cx="172" cy="137" r="4" transform="rotate(90 172 137)" fill="#12233B"/>
<circle cx="268" cy="281" r="4" transform="rotate(90 268 281)" fill="#12233B"/>
<circle cx="268" cy="209" r="4" transform="rotate(90 268 209)" fill="#12233B"/>
<circle cx="316" cy="281" r="4" transform="rotate(90 316 281)" fill="#12233B"/>
<circle cx="28" cy="281" r="4" transform="rotate(90 28 281)" fill="#12233B"/>
<circle cx="364" cy="281" r="4" transform="rotate(90 364 281)" fill="#12233B"/>
<circle cx="76" cy="281" r="4" transform="rotate(90 76 281)" fill="#12233B"/>
<circle cx="316" cy="137" r="4" transform="rotate(90 316 137)" fill="#12233B"/>
<circle cx="28" cy="137" r="4" transform="rotate(90 28 137)" fill="#12233B"/>
<circle cx="364" cy="137" r="4" transform="rotate(90 364 137)" fill="#12233B"/>
<circle cx="124" cy="281" r="4" transform="rotate(90 124 281)" fill="#12233B"/>
<circle cx="220" cy="281" r="4" transform="rotate(90 220 281)" fill="#12233B"/>
<circle cx="220" cy="137" r="4" transform="rotate(90 220 137)" fill="#12233B"/>
<circle cx="340" cy="281" r="4" transform="rotate(90 340 281)" fill="#12233B"/>
<circle cx="52" cy="281" r="4" transform="rotate(90 52 281)" fill="#12233B"/>
<circle cx="388" cy="281" r="4" transform="rotate(90 388 281)" fill="#12233B"/>
<circle cx="100" cy="281" r="4" transform="rotate(90 100 281)" fill="#12233B"/>
<circle cx="340" cy="137" r="4" transform="rotate(90 340 137)" fill="#12233B"/>
<circle cx="388" cy="137" r="4" transform="rotate(90 388 137)" fill="#12233B"/>
<circle cx="148" cy="281" r="4" transform="rotate(90 148 281)" fill="#12233B"/>
<circle cx="244" cy="281" r="4" transform="rotate(90 244 281)" fill="#12233B"/>
<circle cx="244" cy="137" r="4" transform="rotate(90 244 137)" fill="#12233B"/>
<circle cx="292" cy="281" r="4" transform="rotate(90 292 281)" fill="#12233B"/>
<circle cx="196" cy="281" r="4" transform="rotate(90 196 281)" fill="#12233B"/>
<circle cx="196" cy="137" r="4" transform="rotate(90 196 137)" fill="#12233B"/>
</svg>
