<svg width="414" height="412" viewBox="0 0 414 412" fill="none" xmlns="http://www.w3.org/2000/svg">
<rect x="414" y="412" width="414" height="412" transform="rotate(-180 414 412)" fill="#137CDE"/>
<ellipse cx="388" cy="300.171" rx="3.92381" ry="4" transform="rotate(90 388 300.171)" fill="#12233B"/>
<ellipse cx="196" cy="300.171" rx="3.92381" ry="4" transform="rotate(90 196 300.171)" fill="#12233B"/>
<ellipse cx="388" cy="116.733" rx="3.92381" ry="4" transform="rotate(90 388 116.733)" fill="#E4F053"/>
<ellipse cx="292" cy="300.171" rx="3.92381" ry="4" transform="rotate(90 292 300.171)" fill="#E4F053"/>
<ellipse cx="100" cy="300.171" rx="3.92381" ry="4" transform="rotate(90 100 300.171)" fill="#12233B"/>
<ellipse cx="388" cy="209.924" rx="3.92381" ry="4" transform="rotate(90 388 209.924)" fill="#12233B"/>
<ellipse cx="196" cy="209.924" rx="3.92381" ry="4" transform="rotate(90 196 209.924)" fill="#12233B"/>
<ellipse cx="292" cy="209.924" rx="3.92381" ry="4" transform="rotate(90 292 209.924)" fill="#12233B"/>
<ellipse cx="100" cy="209.924" rx="3.92381" ry="4" transform="rotate(90 100 209.924)" fill="#12233B"/>
<ellipse cx="340" cy="300.171" rx="3.92381" ry="4" transform="rotate(90 340 300.171)" fill="#12233B"/>
<ellipse cx="148" cy="300.171" rx="3.92381" ry="4" transform="rotate(90 148 300.171)" fill="#12233B"/>
<ellipse cx="340" cy="116.733" rx="3.92381" ry="4" transform="rotate(90 340 116.733)" fill="#12233B"/>
<ellipse cx="244" cy="300.171" rx="3.92381" ry="4" transform="rotate(90 244 300.171)" fill="#12233B"/>
<ellipse cx="52" cy="300.171" rx="3.92381" ry="4" transform="rotate(90 52 300.171)" fill="#12233B"/>
<ellipse cx="244" cy="116.733" rx="3.92381" ry="4" transform="rotate(90 244 116.733)" fill="#12233B"/>
<ellipse cx="340" cy="209.924" rx="3.92381" ry="4" transform="rotate(90 340 209.924)" fill="#12233B"/>
<ellipse cx="148" cy="209.924" rx="3.92381" ry="4" transform="rotate(90 148 209.924)" fill="#12233B"/>
<ellipse cx="244" cy="209.924" rx="3.92381" ry="4" transform="rotate(90 244 209.924)" fill="#E4F053"/>
<ellipse cx="52" cy="209.924" rx="3.92381" ry="4" transform="rotate(90 52 209.924)" fill="#12233B"/>
<ellipse cx="388" cy="254.067" rx="3.92381" ry="4" transform="rotate(90 388 254.067)" fill="#12233B"/>
<ellipse cx="388" cy="347.257" rx="3.92381" ry="4" transform="rotate(90 388 347.257)" fill="#12233B"/>
<ellipse cx="196" cy="254.067" rx="3.92381" ry="4" transform="rotate(90 196 254.067)" fill="#12233B"/>
<ellipse cx="388" cy="70.6286" rx="3.92381" ry="4" transform="rotate(90 388 70.6286)" fill="#12233B"/>
<ellipse cx="292" cy="254.067" rx="3.92381" ry="4" transform="rotate(90 292 254.067)" fill="#12233B"/>
<ellipse cx="292" cy="347.257" rx="3.92381" ry="4" transform="rotate(90 292 347.257)" fill="#12233B"/>
<ellipse cx="100" cy="254.067" rx="3.92381" ry="4" transform="rotate(90 100 254.067)" fill="#12233B"/>
<ellipse cx="388" cy="163.819" rx="3.92381" ry="4" transform="rotate(90 388 163.819)" fill="#12233B"/>
<ellipse cx="196" cy="163.819" rx="3.92381" ry="4" transform="rotate(90 196 163.819)" fill="#12233B"/>
<ellipse cx="292" cy="163.819" rx="3.92381" ry="4" transform="rotate(90 292 163.819)" fill="#E4F053"/>
<ellipse cx="100" cy="163.819" rx="3.92381" ry="4" transform="rotate(90 100 163.819)" fill="#12233B"/>
<ellipse cx="340" cy="254.067" rx="3.92381" ry="4" transform="rotate(90 340 254.067)" fill="#12233B"/>
<ellipse cx="340" cy="347.257" rx="3.92381" ry="4" transform="rotate(90 340 347.257)" fill="#12233B"/>
<ellipse cx="148" cy="254.067" rx="3.92381" ry="4" transform="rotate(90 148 254.067)" fill="#12233B"/>
<ellipse cx="244" cy="254.067" rx="3.92381" ry="4" transform="rotate(90 244 254.067)" fill="#12233B"/>
<ellipse cx="244" cy="347.257" rx="3.92381" ry="4" transform="rotate(90 244 347.257)" fill="#12233B"/>
<ellipse cx="52" cy="254.067" rx="3.92381" ry="4" transform="rotate(90 52 254.067)" fill="#E4F053"/>
<ellipse cx="340" cy="163.819" rx="3.92381" ry="4" transform="rotate(90 340 163.819)" fill="#12233B"/>
<ellipse cx="244" cy="163.819" rx="3.92381" ry="4" transform="rotate(90 244 163.819)" fill="#12233B"/>
<rect x="352" y="253.086" width="24" height="1.9619" rx="0.980952" fill="#12233B"/>
<rect x="352" y="346.276" width="24" height="1.9619" rx="0.980952" fill="#12233B"/>
<rect x="160" y="253.086" width="24" height="1.9619" rx="0.980952" fill="#12233B"/>
<rect x="256" y="253.086" width="24" height="1.9619" rx="0.980952" fill="#12233B"/>
<rect x="256" y="346.276" width="24" height="1.9619" rx="0.980952" fill="#12233B"/>
<rect x="64" y="253.086" width="24" height="1.9619" rx="0.980952" fill="#12233B"/>
<rect x="16" y="253.086" width="24" height="1.9619" rx="0.980952" fill="#12233B"/>
<rect x="352" y="162.838" width="24" height="1.9619" rx="0.980952" fill="#12233B"/>
<rect x="256" y="162.838" width="24" height="1.9619" rx="0.980952" fill="#E1AFC2"/>
<rect x="64" y="162.838" width="24" height="1.9619" rx="0.980952" fill="#12233B"/>
<rect x="304" y="253.086" width="24" height="1.9619" rx="0.980952" fill="#12233B"/>
<rect x="304" y="346.276" width="24" height="1.9619" rx="0.980952" fill="#12233B"/>
<rect x="112" y="253.086" width="24" height="1.9619" rx="0.980952" fill="#E1AFC2"/>
<rect x="208" y="253.086" width="24" height="1.9619" rx="0.980952" fill="#12233B"/>
<rect x="304" y="162.838" width="24" height="1.9619" rx="0.980952" fill="#12233B"/>
<rect x="208" y="162.838" width="24" height="1.9619" rx="0.980952" fill="#12233B"/>
<rect x="208" y="253.086" width="24" height="1.9619" rx="0.980952" fill="#12233B"/>
<rect x="208" y="162.838" width="24" height="1.9619" rx="0.980952" fill="#12233B"/>
<rect x="352" y="299.191" width="24" height="1.9619" rx="0.980952" fill="#E1AFC2"/>
<rect x="160" y="299.191" width="24" height="1.9619" rx="0.980952" fill="#12233B"/>
<rect x="352" y="115.752" width="24" height="1.9619" rx="0.980952" fill="#12233B"/>
<rect x="256" y="299.191" width="24" height="1.9619" rx="0.980952" fill="#12233B"/>
<rect x="64" y="299.191" width="24" height="1.9619" rx="0.980952" fill="#12233B"/>
<rect x="16" y="299.191" width="24" height="1.9619" rx="0.980952" fill="#12233B"/>
<rect x="256" y="115.752" width="24" height="1.9619" rx="0.980952" fill="#12233B"/>
<rect x="352" y="208.943" width="24" height="1.9619" rx="0.980952" fill="#E1AFC2"/>
<rect x="160" y="208.943" width="24" height="1.9619" rx="0.980952" fill="#E1AFC2"/>
<rect x="256" y="208.943" width="24" height="1.9619" rx="0.980952" fill="#12233B"/>
<rect x="64" y="208.943" width="24" height="1.9619" rx="0.980952" fill="#12233B"/>
<rect x="16" y="208.943" width="24" height="1.9619" rx="0.980952" fill="#12233B"/>
<rect x="341" y="264.857" width="23.5429" height="2" rx="1" transform="rotate(90 341 264.857)" fill="#12233B"/>
<rect x="341" y="358.048" width="23.5429" height="2" rx="1" transform="rotate(90 341 358.048)" fill="#12233B"/>
<rect x="149" y="264.857" width="23.5429" height="2" rx="1" transform="rotate(90 149 264.857)" fill="#12233B"/>
<rect x="341" y="81.4191" width="23.5429" height="2" rx="1" transform="rotate(90 341 81.4191)" fill="#12233B"/>
<rect x="245" y="264.857" width="23.5429" height="2" rx="1" transform="rotate(90 245 264.857)" fill="#12233B"/>
<rect x="245" y="358.048" width="23.5429" height="2" rx="1" transform="rotate(90 245 358.048)" fill="#12233B"/>
<rect x="53" y="264.857" width="23.5429" height="2" rx="1" transform="rotate(90 53 264.857)" fill="#12233B"/>
<rect x="245" y="81.4191" width="23.5429" height="2" rx="1" transform="rotate(90 245 81.4191)" fill="#12233B"/>
<rect x="341" y="174.61" width="23.5429" height="2" rx="1" transform="rotate(90 341 174.61)" fill="#E1AFC2"/>
<rect x="245" y="174.61" width="23.5429" height="2" rx="1" transform="rotate(90 245 174.61)" fill="#12233B"/>
<rect x="53" y="174.61" width="23.5429" height="2" rx="1" transform="rotate(90 53 174.61)" fill="#12233B"/>
<rect x="389" y="264.857" width="23.5429" height="2" rx="1" transform="rotate(90 389 264.857)" fill="#12233B"/>
<rect x="389" y="358.048" width="23.5429" height="2" rx="1" transform="rotate(90 389 358.048)" fill="#12233B"/>
<rect x="389" y="81.4191" width="23.5429" height="2" rx="1" transform="rotate(90 389 81.4191)" fill="#12233B"/>
<rect x="293" y="264.857" width="23.5429" height="2" rx="1" transform="rotate(90 293 264.857)" fill="#12233B"/>
<rect x="293" y="358.048" width="23.5429" height="2" rx="1" transform="rotate(90 293 358.048)" fill="#12233B"/>
<rect x="101" y="264.857" width="23.5429" height="2" rx="1" transform="rotate(90 101 264.857)" fill="#12233B"/>
<rect x="389" y="174.61" width="23.5429" height="2" rx="1" transform="rotate(90 389 174.61)" fill="#12233B"/>
<rect x="197" y="174.61" width="23.5429" height="2" rx="1" transform="rotate(90 197 174.61)" fill="#12233B"/>
<rect x="293" y="174.61" width="23.5429" height="2" rx="1" transform="rotate(90 293 174.61)" fill="#12233B"/>
<rect x="101" y="174.61" width="23.5429" height="2" rx="1" transform="rotate(90 101 174.61)" fill="#12233B"/>
<rect x="341" y="218.752" width="23.5429" height="2" rx="1" transform="rotate(90 341 218.752)" fill="#12233B"/>
<rect x="149" y="218.752" width="23.5429" height="2" rx="1" transform="rotate(90 149 218.752)" fill="#12233B"/>
<rect x="245" y="218.752" width="23.5429" height="2" rx="1" transform="rotate(90 245 218.752)" fill="#12233B"/>
<rect x="53" y="218.752" width="23.5429" height="2" rx="1" transform="rotate(90 53 218.752)" fill="#12233B"/>
<rect x="341" y="311.943" width="23.5429" height="2" rx="1" transform="rotate(90 341 311.943)" fill="#12233B"/>
<rect x="149" y="311.943" width="23.5429" height="2" rx="1" transform="rotate(90 149 311.943)" fill="#12233B"/>
<rect x="341" y="128.505" width="23.5429" height="2" rx="1" transform="rotate(90 341 128.505)" fill="#12233B"/>
<rect x="245" y="311.943" width="23.5429" height="2" rx="1" transform="rotate(90 245 311.943)" fill="#12233B"/>
<rect x="53" y="311.943" width="23.5429" height="2" rx="1" transform="rotate(90 53 311.943)" fill="#12233B"/>
<rect x="245" y="128.505" width="23.5429" height="2" rx="1" transform="rotate(90 245 128.505)" fill="#12233B"/>
<rect x="197" y="218.752" width="23.5429" height="2" rx="1" transform="rotate(90 197 218.752)" fill="#12233B"/>
<rect x="389" y="35.3143" width="23.5429" height="2" rx="1" transform="rotate(90 389 35.3143)" fill="#12233B"/>
<rect x="293" y="218.752" width="23.5429" height="2" rx="1" transform="rotate(90 293 218.752)" fill="#12233B"/>
<rect x="101" y="218.752" width="23.5429" height="2" rx="1" transform="rotate(90 101 218.752)" fill="#12233B"/>
<rect x="389" y="311.943" width="23.5429" height="2" rx="1" transform="rotate(90 389 311.943)" fill="#12233B"/>
<rect x="197" y="311.943" width="23.5429" height="2" rx="1" transform="rotate(90 197 311.943)" fill="#12233B"/>
<rect x="197" y="128.505" width="23.5429" height="2" rx="1" transform="rotate(90 197 128.505)" fill="#12233B"/>
<rect x="293" y="311.943" width="23.5429" height="2" rx="1" transform="rotate(90 293 311.943)" fill="#12233B"/>
<rect x="101" y="311.943" width="23.5429" height="2" rx="1" transform="rotate(90 101 311.943)" fill="#12233B"/>
<rect x="293" y="128.505" width="23.5429" height="2" rx="1" transform="rotate(90 293 128.505)" fill="#12233B"/>
<rect x="101" y="128.505" width="23.5429" height="2" rx="1" transform="rotate(90 101 128.505)" fill="#E1AFC2"/>
<rect x="304" y="299.191" width="24" height="1.9619" rx="0.980952" fill="#12233B"/>
<rect x="112" y="299.191" width="24" height="1.9619" rx="0.980952" fill="#12233B"/>
<rect x="304" y="115.752" width="24" height="1.9619" rx="0.980952" fill="#12233B"/>
<rect x="208" y="299.191" width="24" height="1.9619" rx="0.980952" fill="#12233B"/>
<rect x="208" y="115.752" width="24" height="1.9619" rx="0.980952" fill="#12233B"/>
<rect x="208" y="299.191" width="24" height="1.9619" rx="0.980952" fill="#12233B"/>
<rect x="208" y="115.752" width="24" height="1.9619" rx="0.980952" fill="#12233B"/>
<rect x="304" y="208.943" width="24" height="1.9619" rx="0.980952" fill="#12233B"/>
<rect x="112" y="208.943" width="24" height="1.9619" rx="0.980952" fill="#12233B"/>
<rect x="208" y="208.943" width="24" height="1.9619" rx="0.980952" fill="#12233B"/>
<rect x="208" y="208.943" width="24" height="1.9619" rx="0.980952" fill="#12233B"/>
</svg>
