<svg width="1330" height="582" viewBox="0 0 1330 582" fill="none" xmlns="http://www.w3.org/2000/svg">
<rect x="1330" y="582" width="1330" height="582" transform="rotate(-180 1330 582)" fill="#12233B"/>
<circle cx="1270" cy="343" r="4" transform="rotate(90 1270 343)" fill="#137CDE"/>
<circle cx="982" cy="343" r="4" transform="rotate(90 982 343)" fill="#137CDE"/>
<circle cx="1126" cy="343" r="4" transform="rotate(90 1126 343)" fill="#137CDE"/>
<circle cx="1174" cy="343" r="4" transform="rotate(90 1174 343)" fill="#E4F053"/>
<circle cx="1222" cy="343" r="4" transform="rotate(90 1222 343)" fill="#137CDE"/>
<circle cx="1030" cy="343" r="4" transform="rotate(90 1030 343)" fill="#137CDE"/>
<circle cx="1150" cy="343" r="4" transform="rotate(90 1150 343)" fill="#137CDE"/>
<circle cx="1198" cy="343" r="4" transform="rotate(90 1198 343)" fill="#137CDE"/>
<circle cx="1054" cy="343" r="4" transform="rotate(90 1054 343)" fill="#137CDE"/>
<circle cx="1102" cy="343" r="4" transform="rotate(90 1102 343)" fill="#137CDE"/>
<circle cx="1294" cy="199" r="4" transform="rotate(90 1294 199)" fill="#137CDE"/>
<circle cx="1294" cy="343" r="4" transform="rotate(90 1294 343)" fill="#137CDE"/>
<circle cx="1006" cy="343" r="4" transform="rotate(90 1006 343)" fill="#137CDE"/>
<circle cx="1270" cy="415" r="4" transform="rotate(90 1270 415)" fill="#137CDE"/>
<circle cx="982" cy="415" r="4" transform="rotate(90 982 415)" fill="#137CDE"/>
<circle cx="1270" cy="271" r="4" transform="rotate(90 1270 271)" fill="#137CDE"/>
<circle cx="1078" cy="415" r="4" transform="rotate(90 1078 415)" fill="#137CDE"/>
<circle cx="1126" cy="415" r="4" transform="rotate(90 1126 415)" fill="#137CDE"/>
<circle cx="1174" cy="415" r="4" transform="rotate(90 1174 415)" fill="#137CDE"/>
<circle cx="1126" cy="271" r="4" transform="rotate(90 1126 271)" fill="#137CDE"/>
<circle cx="1222" cy="415" r="4" transform="rotate(90 1222 415)" fill="#137CDE"/>
<circle cx="934" cy="415" r="4" transform="rotate(90 934 415)" fill="#137CDE"/>
<circle cx="886" cy="415" r="4" transform="rotate(90 886 415)" fill="#137CDE"/>
<circle cx="1222" cy="271" r="4" transform="rotate(90 1222 271)" fill="#137CDE"/>
<circle cx="1030" cy="415" r="4" transform="rotate(90 1030 415)" fill="#137CDE"/>
<circle cx="1030" cy="271" r="4" transform="rotate(90 1030 271)" fill="#137CDE"/>
<circle cx="1150" cy="415" r="4" transform="rotate(90 1150 415)" fill="#137CDE"/>
<circle cx="1198" cy="415" r="4" transform="rotate(90 1198 415)" fill="#137CDE"/>
<circle cx="1246" cy="415" r="4" transform="rotate(90 1246 415)" fill="#137CDE"/>
<circle cx="910" cy="415" r="4" transform="rotate(90 910 415)" fill="#137CDE"/>
<circle cx="958" cy="415" r="4" transform="rotate(90 958 415)" fill="#137CDE"/>
<circle cx="1054" cy="415" r="4" transform="rotate(90 1054 415)" fill="#137CDE"/>
<circle cx="862" cy="415" r="4" transform="rotate(90 862 415)" fill="#137CDE"/>
<circle cx="1054" cy="271" r="4" transform="rotate(90 1054 271)" fill="#137CDE"/>
<circle cx="1102" cy="415" r="4" transform="rotate(90 1102 415)" fill="#137CDE"/>
<circle cx="1294" cy="415" r="4" transform="rotate(90 1294 415)" fill="#137CDE"/>
<circle cx="1006" cy="415" r="4" transform="rotate(90 1006 415)" fill="#137CDE"/>
<circle cx="1294" cy="271" r="4" transform="rotate(90 1294 271)" fill="#137CDE"/>
<circle cx="1270" cy="463" r="4" transform="rotate(90 1270 463)" fill="#137CDE"/>
<circle cx="982" cy="463" r="4" transform="rotate(90 982 463)" fill="#137CDE"/>
<circle cx="1270" cy="319" r="4" transform="rotate(90 1270 319)" fill="#137CDE"/>
<circle cx="982" cy="319" r="4" transform="rotate(90 982 319)" fill="#137CDE"/>
<circle cx="1078" cy="463" r="4" transform="rotate(90 1078 463)" fill="#137CDE"/>
<circle cx="1126" cy="463" r="4" transform="rotate(90 1126 463)" fill="#137CDE"/>
<circle cx="1174" cy="463" r="4" transform="rotate(90 1174 463)" fill="#137CDE"/>
<circle cx="934" cy="463" r="4" transform="rotate(90 934 463)" fill="#137CDE"/>
<circle cx="1126" cy="319" r="4" transform="rotate(90 1126 319)" fill="#137CDE"/>
<circle cx="1174" cy="319" r="4" transform="rotate(90 1174 319)" fill="#137CDE"/>
<circle cx="886" cy="463" r="4" transform="rotate(90 886 463)" fill="#137CDE"/>
<circle cx="1222" cy="463" r="4" transform="rotate(90 1222 463)" fill="#137CDE"/>
<circle cx="1222" cy="319" r="4" transform="rotate(90 1222 319)" fill="#137CDE"/>
<circle cx="1030" cy="463" r="4" transform="rotate(90 1030 463)" fill="#137CDE"/>
<circle cx="1030" cy="319" r="4" transform="rotate(90 1030 319)" fill="#137CDE"/>
<circle cx="1150" cy="463" r="4" transform="rotate(90 1150 463)" fill="#137CDE"/>
<circle cx="1198" cy="463" r="4" transform="rotate(90 1198 463)" fill="#137CDE"/>
<circle cx="910" cy="463" r="4" transform="rotate(90 910 463)" fill="#137CDE"/>
<circle cx="1150" cy="319" r="4" transform="rotate(90 1150 319)" fill="#137CDE"/>
<circle cx="1198" cy="319" r="4" transform="rotate(90 1198 319)" fill="#137CDE"/>
<circle cx="1246" cy="463" r="4" transform="rotate(90 1246 463)" fill="#137CDE"/>
<circle cx="958" cy="463" r="4" transform="rotate(90 958 463)" fill="#137CDE"/>
<circle cx="1054" cy="463" r="4" transform="rotate(90 1054 463)" fill="#137CDE"/>
<circle cx="862" cy="463" r="4" transform="rotate(90 862 463)" fill="#137CDE"/>
<circle cx="1054" cy="319" r="4" transform="rotate(90 1054 319)" fill="#137CDE"/>
<circle cx="1102" cy="463" r="4" transform="rotate(90 1102 463)" fill="#137CDE"/>
<circle cx="1102" cy="319" r="4" transform="rotate(90 1102 319)" fill="#137CDE"/>
<circle cx="1294" cy="175" r="4" transform="rotate(90 1294 175)" fill="#137CDE"/>
<circle cx="1294" cy="463" r="4" transform="rotate(90 1294 463)" fill="#137CDE"/>
<circle cx="1006" cy="463" r="4" transform="rotate(90 1006 463)" fill="#137CDE"/>
<circle cx="1294" cy="319" r="4" transform="rotate(90 1294 319)" fill="#137CDE"/>
<circle cx="1006" cy="319" r="4" transform="rotate(90 1006 319)" fill="#137CDE"/>
<circle cx="1270" cy="439" r="4" transform="rotate(90 1270 439)" fill="#137CDE"/>
<circle cx="982" cy="439" r="4" transform="rotate(90 982 439)" fill="#137CDE"/>
<circle cx="1270" cy="295" r="4" transform="rotate(90 1270 295)" fill="#137CDE"/>
<circle cx="934" cy="439" r="4" transform="rotate(90 934 439)" fill="#E4F053"/>
<circle cx="1078" cy="439" r="4" transform="rotate(90 1078 439)" fill="#137CDE"/>
<circle cx="1126" cy="439" r="4" transform="rotate(90 1126 439)" fill="#E4F053"/>
<circle cx="886" cy="439" r="4" transform="rotate(90 886 439)" fill="#137CDE"/>
<circle cx="1174" cy="439" r="4" transform="rotate(90 1174 439)" fill="#137CDE"/>
<circle cx="1126" cy="295" r="4" transform="rotate(90 1126 295)" fill="#137CDE"/>
<circle cx="1174" cy="295" r="4" transform="rotate(90 1174 295)" fill="#137CDE"/>
<circle cx="1222" cy="439" r="4" transform="rotate(90 1222 439)" fill="#137CDE"/>
<circle cx="1222" cy="295" r="4" transform="rotate(90 1222 295)" fill="#137CDE"/>
<circle cx="1030" cy="439" r="4" transform="rotate(90 1030 439)" fill="#137CDE"/>
<circle cx="910" cy="439" r="4" transform="rotate(90 910 439)" fill="#137CDE"/>
<circle cx="1030" cy="295" r="4" transform="rotate(90 1030 295)" fill="#137CDE"/>
<circle cx="1150" cy="439" r="4" transform="rotate(90 1150 439)" fill="#137CDE"/>
<circle cx="1198" cy="439" r="4" transform="rotate(90 1198 439)" fill="#137CDE"/>
<circle cx="1150" cy="295" r="4" transform="rotate(90 1150 295)" fill="#137CDE"/>
<circle cx="1246" cy="439" r="4" transform="rotate(90 1246 439)" fill="#137CDE"/>
<circle cx="958" cy="439" r="4" transform="rotate(90 958 439)" fill="#137CDE"/>
<circle cx="1054" cy="439" r="4" transform="rotate(90 1054 439)" fill="#137CDE"/>
<circle cx="862" cy="439" r="4" transform="rotate(90 862 439)" fill="#137CDE"/>
<circle cx="1054" cy="295" r="4" transform="rotate(90 1054 295)" fill="#137CDE"/>
<circle cx="1102" cy="439" r="4" transform="rotate(90 1102 439)" fill="#137CDE"/>
<circle cx="1102" cy="295" r="4" transform="rotate(90 1102 295)" fill="#137CDE"/>
<circle cx="1294" cy="439" r="4" transform="rotate(90 1294 439)" fill="#137CDE"/>
<circle cx="1006" cy="439" r="4" transform="rotate(90 1006 439)" fill="#137CDE"/>
<circle cx="1294" cy="295" r="4" transform="rotate(90 1294 295)" fill="#137CDE"/>
<circle cx="1270" cy="367" r="4" transform="rotate(90 1270 367)" fill="#137CDE"/>
<circle cx="982" cy="367" r="4" transform="rotate(90 982 367)" fill="#137CDE"/>
<circle cx="1126" cy="367" r="4" transform="rotate(90 1126 367)" fill="#137CDE"/>
<circle cx="1174" cy="367" r="4" transform="rotate(90 1174 367)" fill="#137CDE"/>
<circle cx="1126" cy="223" r="4" transform="rotate(90 1126 223)" fill="#137CDE"/>
<circle cx="1222" cy="367" r="4" transform="rotate(90 1222 367)" fill="#137CDE"/>
<circle cx="934" cy="367" r="4" transform="rotate(90 934 367)" fill="#137CDE"/>
<circle cx="1030" cy="367" r="4" transform="rotate(90 1030 367)" fill="#137CDE"/>
<circle cx="1150" cy="367" r="4" transform="rotate(90 1150 367)" fill="#137CDE"/>
<circle cx="1198" cy="367" r="4" transform="rotate(90 1198 367)" fill="#137CDE"/>
<circle cx="1246" cy="367" r="4" transform="rotate(90 1246 367)" fill="#137CDE"/>
<circle cx="958" cy="367" r="4" transform="rotate(90 958 367)" fill="#137CDE"/>
<circle cx="1054" cy="367" r="4" transform="rotate(90 1054 367)" fill="#137CDE"/>
<circle cx="1102" cy="367" r="4" transform="rotate(90 1102 367)" fill="#137CDE"/>
<circle cx="1294" cy="367" r="4" transform="rotate(90 1294 367)" fill="#137CDE"/>
<circle cx="1006" cy="367" r="4" transform="rotate(90 1006 367)" fill="#137CDE"/>
<circle cx="1294" cy="223" r="4" transform="rotate(90 1294 223)" fill="#137CDE"/>
<circle cx="1270" cy="391" r="4" transform="rotate(90 1270 391)" fill="#137CDE"/>
<circle cx="982" cy="391" r="4" transform="rotate(90 982 391)" fill="#137CDE"/>
<circle cx="1270" cy="247" r="4" transform="rotate(90 1270 247)" fill="#137CDE"/>
<circle cx="1078" cy="391" r="4" transform="rotate(90 1078 391)" fill="#137CDE"/>
<circle cx="1126" cy="391" r="4" transform="rotate(90 1126 391)" fill="#137CDE"/>
<circle cx="1174" cy="391" r="4" transform="rotate(90 1174 391)" fill="#137CDE"/>
<circle cx="1126" cy="247" r="4" transform="rotate(90 1126 247)" fill="#137CDE"/>
<circle cx="1222" cy="391" r="4" transform="rotate(90 1222 391)" fill="#E4F053"/>
<circle cx="934" cy="391" r="4" transform="rotate(90 934 391)" fill="#137CDE"/>
<circle cx="1030" cy="391" r="4" transform="rotate(90 1030 391)" fill="#137CDE"/>
<circle cx="1150" cy="391" r="4" transform="rotate(90 1150 391)" fill="#137CDE"/>
<circle cx="1198" cy="391" r="4" transform="rotate(90 1198 391)" fill="#137CDE"/>
<circle cx="1246" cy="391" r="4" transform="rotate(90 1246 391)" fill="#137CDE"/>
<circle cx="958" cy="391" r="4" transform="rotate(90 958 391)" fill="#137CDE"/>
<circle cx="1054" cy="391" r="4" transform="rotate(90 1054 391)" fill="#137CDE"/>
<circle cx="1054" cy="247" r="4" transform="rotate(90 1054 247)" fill="#137CDE"/>
<circle cx="1102" cy="391" r="4" transform="rotate(90 1102 391)" fill="#137CDE"/>
<circle cx="1294" cy="391" r="4" transform="rotate(90 1294 391)" fill="#137CDE"/>
<circle cx="1006" cy="391" r="4" transform="rotate(90 1006 391)" fill="#137CDE"/>
<circle cx="1294" cy="247" r="4" transform="rotate(90 1294 247)" fill="#E4F053"/>
</svg>
