<svg width="1330" height="387" viewBox="0 0 1330 387" fill="none" xmlns="http://www.w3.org/2000/svg">
<rect x="1330" y="387" width="1330" height="387" transform="rotate(-180 1330 387)" fill="#137CDE"/>
<circle cx="1280" cy="287" r="4" transform="rotate(90 1280 287)" fill="#12233B"/>
<circle cx="896" cy="287" r="4" transform="rotate(90 896 287)" fill="#12233B"/>
<circle cx="1088" cy="287" r="4" transform="rotate(90 1088 287)" fill="#12233B"/>
<circle cx="704" cy="287" r="4" transform="rotate(90 704 287)" fill="#12233B"/>
<circle cx="1280" cy="100" r="4" transform="rotate(90 1280 100)" fill="#E4F053"/>
<circle cx="1184" cy="287" r="4" transform="rotate(90 1184 287)" fill="#E4F053"/>
<circle cx="800" cy="287" r="4" transform="rotate(90 800 287)" fill="#12233B"/>
<circle cx="992" cy="287" r="4" transform="rotate(90 992 287)" fill="#12233B"/>
<circle cx="608" cy="287" r="4" transform="rotate(90 608 287)" fill="#E4F053"/>
<circle cx="464" cy="287" r="4" transform="rotate(90 464 287)" fill="#12233B"/>
<circle cx="1280" cy="195" r="4" transform="rotate(90 1280 195)" fill="#12233B"/>
<circle cx="896" cy="195" r="4" transform="rotate(90 896 195)" fill="#12233B"/>
<circle cx="1088" cy="195" r="4" transform="rotate(90 1088 195)" fill="#12233B"/>
<circle cx="704" cy="195" r="4" transform="rotate(90 704 195)" fill="#12233B"/>
<circle cx="1184" cy="195" r="4" transform="rotate(90 1184 195)" fill="#12233B"/>
<circle cx="800" cy="195" r="4" transform="rotate(90 800 195)" fill="#12233B"/>
<circle cx="992" cy="195" r="4" transform="rotate(90 992 195)" fill="#12233B"/>
<circle cx="608" cy="195" r="4" transform="rotate(90 608 195)" fill="#12233B"/>
<circle cx="1232" cy="287" r="4" transform="rotate(90 1232 287)" fill="#12233B"/>
<circle cx="848" cy="287" r="4" transform="rotate(90 848 287)" fill="#12233B"/>
<circle cx="1040" cy="287" r="4" transform="rotate(90 1040 287)" fill="#12233B"/>
<circle cx="656" cy="287" r="4" transform="rotate(90 656 287)" fill="#12233B"/>
<circle cx="512" cy="287" r="4" transform="rotate(90 512 287)" fill="#12233B"/>
<circle cx="1232" cy="100" r="4" transform="rotate(90 1232 100)" fill="#12233B"/>
<circle cx="1136" cy="287" r="4" transform="rotate(90 1136 287)" fill="#12233B"/>
<circle cx="752" cy="287" r="4" transform="rotate(90 752 287)" fill="#12233B"/>
<circle cx="944" cy="287" r="4" transform="rotate(90 944 287)" fill="#12233B"/>
<circle cx="560" cy="287" r="4" transform="rotate(90 560 287)" fill="#12233B"/>
<circle cx="1136" cy="100" r="4" transform="rotate(90 1136 100)" fill="#12233B"/>
<circle cx="1232" cy="195" r="4" transform="rotate(90 1232 195)" fill="#12233B"/>
<circle cx="848" cy="195" r="4" transform="rotate(90 848 195)" fill="#12233B"/>
<circle cx="1040" cy="195" r="4" transform="rotate(90 1040 195)" fill="#12233B"/>
<circle cx="656" cy="195" r="4" transform="rotate(90 656 195)" fill="#12233B"/>
<circle cx="1136" cy="195" r="4" transform="rotate(90 1136 195)" fill="#E4F053"/>
<circle cx="752" cy="195" r="4" transform="rotate(90 752 195)" fill="#E4F053"/>
<circle cx="944" cy="195" r="4" transform="rotate(90 944 195)" fill="#12233B"/>
<circle cx="1280" cy="240" r="4" transform="rotate(90 1280 240)" fill="#12233B"/>
<circle cx="896" cy="240" r="4" transform="rotate(90 896 240)" fill="#12233B"/>
<circle cx="1088" cy="240" r="4" transform="rotate(90 1088 240)" fill="#12233B"/>
<circle cx="704" cy="240" r="4" transform="rotate(90 704 240)" fill="#12233B"/>
<circle cx="1280" cy="53" r="4" transform="rotate(90 1280 53)" fill="#12233B"/>
<circle cx="1184" cy="240" r="4" transform="rotate(90 1184 240)" fill="#12233B"/>
<circle cx="800" cy="240" r="4" transform="rotate(90 800 240)" fill="#12233B"/>
<circle cx="992" cy="240" r="4" transform="rotate(90 992 240)" fill="#12233B"/>
<circle cx="1280" cy="335" r="4" transform="rotate(90 1280 335)" fill="#12233B"/>
<circle cx="896" cy="335" r="4" transform="rotate(90 896 335)" fill="#12233B"/>
<circle cx="1088" cy="335" r="4" transform="rotate(90 1088 335)" fill="#12233B"/>
<circle cx="704" cy="335" r="4" transform="rotate(90 704 335)" fill="#12233B"/>
<circle cx="1280" cy="148" r="4" transform="rotate(90 1280 148)" fill="#12233B"/>
<circle cx="896" cy="148" r="4" transform="rotate(90 896 148)" fill="#12233B"/>
<circle cx="1088" cy="148" r="4" transform="rotate(90 1088 148)" fill="#12233B"/>
<circle cx="1184" cy="335" r="4" transform="rotate(90 1184 335)" fill="#12233B"/>
<circle cx="800" cy="335" r="4" transform="rotate(90 800 335)" fill="#12233B"/>
<circle cx="992" cy="335" r="4" transform="rotate(90 992 335)" fill="#12233B"/>
<circle cx="608" cy="335" r="4" transform="rotate(90 608 335)" fill="#12233B"/>
<circle cx="464" cy="335" r="4" transform="rotate(90 464 335)" fill="#12233B"/>
<circle cx="1184" cy="148" r="4" transform="rotate(90 1184 148)" fill="#E4F053"/>
<circle cx="800" cy="148" r="4" transform="rotate(90 800 148)" fill="#12233B"/>
<circle cx="992" cy="148" r="4" transform="rotate(90 992 148)" fill="#12233B"/>
<circle cx="1232" cy="240" r="4" transform="rotate(90 1232 240)" fill="#12233B"/>
<circle cx="848" cy="240" r="4" transform="rotate(90 848 240)" fill="#12233B"/>
<circle cx="1040" cy="240" r="4" transform="rotate(90 1040 240)" fill="#12233B"/>
<circle cx="656" cy="240" r="4" transform="rotate(90 656 240)" fill="#12233B"/>
<circle cx="512" cy="240" r="4" transform="rotate(90 512 240)" fill="#12233B"/>
<circle cx="1136" cy="240" r="4" transform="rotate(90 1136 240)" fill="#12233B"/>
<circle cx="752" cy="240" r="4" transform="rotate(90 752 240)" fill="#12233B"/>
<circle cx="944" cy="240" r="4" transform="rotate(90 944 240)" fill="#E4F053"/>
<circle cx="560" cy="240" r="4" transform="rotate(90 560 240)" fill="#12233B"/>
<circle cx="1232" cy="335" r="4" transform="rotate(90 1232 335)" fill="#12233B"/>
<circle cx="848" cy="335" r="4" transform="rotate(90 848 335)" fill="#12233B"/>
<circle cx="1040" cy="335" r="4" transform="rotate(90 1040 335)" fill="#12233B"/>
<circle cx="656" cy="335" r="4" transform="rotate(90 656 335)" fill="#12233B"/>
<circle cx="512" cy="335" r="4" transform="rotate(90 512 335)" fill="#12233B"/>
<circle cx="1232" cy="148" r="4" transform="rotate(90 1232 148)" fill="#12233B"/>
<circle cx="1136" cy="335" r="4" transform="rotate(90 1136 335)" fill="#12233B"/>
<circle cx="752" cy="335" r="4" transform="rotate(90 752 335)" fill="#12233B"/>
<circle cx="944" cy="335" r="4" transform="rotate(90 944 335)" fill="#12233B"/>
<circle cx="560" cy="335" r="4" transform="rotate(90 560 335)" fill="#12233B"/>
<circle cx="416" cy="335" r="4" transform="rotate(90 416 335)" fill="#12233B"/>
<circle cx="1136" cy="148" r="4" transform="rotate(90 1136 148)" fill="#12233B"/>
<rect x="1244" y="239" width="24" height="2" rx="1" fill="#12233B"/>
<rect x="860" y="239" width="24" height="2" rx="1" fill="#E1AFC2"/>
<rect x="1052" y="239" width="24" height="2" rx="1" fill="#12233B"/>
<rect x="668" y="239" width="24" height="2" rx="1" fill="#12233B"/>
<rect x="1148" y="239" width="24" height="2" rx="1" fill="#12233B"/>
<rect x="764" y="239" width="24" height="2" rx="1" fill="#12233B"/>
<rect x="956" y="239" width="24" height="2" rx="1" fill="#12233B"/>
<rect x="572" y="239" width="24" height="2" rx="1" fill="#12233B"/>
<rect x="1244" y="334" width="24" height="2" rx="1" fill="#12233B"/>
<rect x="860" y="334" width="24" height="2" rx="1" fill="#12233B"/>
<rect x="1052" y="334" width="24" height="2" rx="1" fill="#12233B"/>
<rect x="668" y="334" width="24" height="2" rx="1" fill="#12233B"/>
<rect x="1244" y="147" width="24" height="2" rx="1" fill="#12233B"/>
<rect x="1148" y="334" width="24" height="2" rx="1" fill="#12233B"/>
<rect x="764" y="334" width="24" height="2" rx="1" fill="#12233B"/>
<rect x="956" y="334" width="24" height="2" rx="1" fill="#12233B"/>
<rect x="572" y="334" width="24" height="2" rx="1" fill="#12233B"/>
<rect x="428" y="334" width="24" height="2" rx="1" fill="#12233B"/>
<rect x="1148" y="147" width="24" height="2" rx="1" fill="#E1AFC2"/>
<rect x="956" y="147" width="24" height="2" rx="1" fill="#12233B"/>
<rect x="1196" y="239" width="24" height="2" rx="1" fill="#12233B"/>
<rect x="812" y="239" width="24" height="2" rx="1" fill="#12233B"/>
<rect x="1004" y="239" width="24" height="2" rx="1" fill="#E1AFC2"/>
<rect x="620" y="239" width="24" height="2" rx="1" fill="#12233B"/>
<rect x="1100" y="239" width="24" height="2" rx="1" fill="#12233B"/>
<rect x="716" y="239" width="24" height="2" rx="1" fill="#12233B"/>
<rect x="908" y="239" width="24" height="2" rx="1" fill="#12233B"/>
<rect x="524" y="239" width="24" height="2" rx="1" fill="#12233B"/>
<rect x="1196" y="334" width="24" height="2" rx="1" fill="#12233B"/>
<rect x="812" y="334" width="24" height="2" rx="1" fill="#E1AFC2"/>
<rect x="1004" y="334" width="24" height="2" rx="1" fill="#12233B"/>
<rect x="620" y="334" width="24" height="2" rx="1" fill="#12233B"/>
<rect x="476" y="334" width="24" height="2" rx="1" fill="#12233B"/>
<rect x="1196" y="147" width="24" height="2" rx="1" fill="#12233B"/>
<rect x="812" y="147" width="24" height="2" rx="1" fill="#12233B"/>
<rect x="1100" y="334" width="24" height="2" rx="1" fill="#12233B"/>
<rect x="716" y="334" width="24" height="2" rx="1" fill="#12233B"/>
<rect x="908" y="334" width="24" height="2" rx="1" fill="#12233B"/>
<rect x="524" y="334" width="24" height="2" rx="1" fill="#12233B"/>
<rect x="380" y="334" width="24" height="2" rx="1" fill="#12233B"/>
<rect x="1100" y="147" width="24" height="2" rx="1" fill="#12233B"/>
<rect x="908" y="147" width="24" height="2" rx="1" fill="#12233B"/>
<rect x="1292" y="239" width="24" height="2" rx="1" fill="#12233B"/>
<rect x="1100" y="239" width="24" height="2" rx="1" fill="#12233B"/>
<rect x="716" y="239" width="24" height="2" rx="1" fill="#E1AFC2"/>
<rect x="1292" y="52" width="24" height="2" rx="1" fill="#12233B"/>
<rect x="1292" y="334" width="24" height="2" rx="1" fill="#E1AFC2"/>
<rect x="1100" y="334" width="24" height="2" rx="1" fill="#12233B"/>
<rect x="716" y="334" width="24" height="2" rx="1" fill="#12233B"/>
<rect x="1292" y="147" width="24" height="2" rx="1" fill="#12233B"/>
<rect x="1100" y="147" width="24" height="2" rx="1" fill="#12233B"/>
<rect x="1244" y="286" width="24" height="2" rx="1" fill="#E1AFC2"/>
<rect x="860" y="286" width="24" height="2" rx="1" fill="#12233B"/>
<rect x="1052" y="286" width="24" height="2" rx="1" fill="#12233B"/>
<rect x="668" y="286" width="24" height="2" rx="1" fill="#12233B"/>
<rect x="1244" y="99" width="24" height="2" rx="1" fill="#12233B"/>
<rect x="1148" y="286" width="24" height="2" rx="1" fill="#12233B"/>
<rect x="764" y="286" width="24" height="2" rx="1" fill="#12233B"/>
<rect x="956" y="286" width="24" height="2" rx="1" fill="#12233B"/>
<rect x="572" y="286" width="24" height="2" rx="1" fill="#12233B"/>
<rect x="428" y="286" width="24" height="2" rx="1" fill="#12233B"/>
<rect x="1148" y="99" width="24" height="2" rx="1" fill="#12233B"/>
<rect x="1244" y="194" width="24" height="2" rx="1" fill="#E1AFC2"/>
<rect x="860" y="194" width="24" height="2" rx="1" fill="#12233B"/>
<rect x="1052" y="194" width="24" height="2" rx="1" fill="#E1AFC2"/>
<rect x="668" y="194" width="24" height="2" rx="1" fill="#12233B"/>
<rect x="1148" y="194" width="24" height="2" rx="1" fill="#12233B"/>
<rect x="764" y="194" width="24" height="2" rx="1" fill="#12233B"/>
<rect x="956" y="194" width="24" height="2" rx="1" fill="#12233B"/>
<rect x="1233" y="251" width="24" height="2" rx="1" transform="rotate(90 1233 251)" fill="#12233B"/>
<rect x="849" y="251" width="24" height="2" rx="1" transform="rotate(90 849 251)" fill="#12233B"/>
<rect x="1041" y="251" width="24" height="2" rx="1" transform="rotate(90 1041 251)" fill="#12233B"/>
<rect x="657" y="251" width="24" height="2" rx="1" transform="rotate(90 657 251)" fill="#12233B"/>
<rect x="513" y="251" width="24" height="2" rx="1" transform="rotate(90 513 251)" fill="#12233B"/>
<rect x="1233" y="64" width="24" height="2" rx="1" transform="rotate(90 1233 64)" fill="#12233B"/>
<rect x="1137" y="251" width="24" height="2" rx="1" transform="rotate(90 1137 251)" fill="#12233B"/>
<rect x="753" y="251" width="24" height="2" rx="1" transform="rotate(90 753 251)" fill="#12233B"/>
<rect x="945" y="251" width="24" height="2" rx="1" transform="rotate(90 945 251)" fill="#12233B"/>
<rect x="561" y="251" width="24" height="2" rx="1" transform="rotate(90 561 251)" fill="#E1AFC2"/>
<rect x="1137" y="64" width="24" height="2" rx="1" transform="rotate(90 1137 64)" fill="#12233B"/>
<rect x="1233" y="346" width="24" height="2" rx="1" transform="rotate(90 1233 346)" fill="#12233B"/>
<rect x="849" y="346" width="24" height="2" rx="1" transform="rotate(90 849 346)" fill="#12233B"/>
<rect x="1041" y="346" width="24" height="2" rx="1" transform="rotate(90 1041 346)" fill="#12233B"/>
<rect x="657" y="346" width="24" height="2" rx="1" transform="rotate(90 657 346)" fill="#12233B"/>
<rect x="513" y="346" width="24" height="2" rx="1" transform="rotate(90 513 346)" fill="#12233B"/>
<rect x="1233" y="159" width="24" height="2" rx="1" transform="rotate(90 1233 159)" fill="#E1AFC2"/>
<rect x="849" y="159" width="24" height="2" rx="1" transform="rotate(90 849 159)" fill="#12233B"/>
<rect x="1137" y="346" width="24" height="2" rx="1" transform="rotate(90 1137 346)" fill="#12233B"/>
<rect x="753" y="346" width="24" height="2" rx="1" transform="rotate(90 753 346)" fill="#12233B"/>
<rect x="945" y="346" width="24" height="2" rx="1" transform="rotate(90 945 346)" fill="#12233B"/>
<rect x="561" y="346" width="24" height="2" rx="1" transform="rotate(90 561 346)" fill="#12233B"/>
<rect x="417" y="346" width="24" height="2" rx="1" transform="rotate(90 417 346)" fill="#12233B"/>
<rect x="1137" y="159" width="24" height="2" rx="1" transform="rotate(90 1137 159)" fill="#12233B"/>
<rect x="753" y="159" width="24" height="2" rx="1" transform="rotate(90 753 159)" fill="#12233B"/>
<rect x="945" y="159" width="24" height="2" rx="1" transform="rotate(90 945 159)" fill="#12233B"/>
<rect x="1281" y="251" width="24" height="2" rx="1" transform="rotate(90 1281 251)" fill="#12233B"/>
<rect x="897" y="251" width="24" height="2" rx="1" transform="rotate(90 897 251)" fill="#12233B"/>
<rect x="1089" y="251" width="24" height="2" rx="1" transform="rotate(90 1089 251)" fill="#12233B"/>
<rect x="705" y="251" width="24" height="2" rx="1" transform="rotate(90 705 251)" fill="#12233B"/>
<rect x="1281" y="64" width="24" height="2" rx="1" transform="rotate(90 1281 64)" fill="#12233B"/>
<rect x="1185" y="251" width="24" height="2" rx="1" transform="rotate(90 1185 251)" fill="#12233B"/>
<rect x="801" y="251" width="24" height="2" rx="1" transform="rotate(90 801 251)" fill="#12233B"/>
<rect x="993" y="251" width="24" height="2" rx="1" transform="rotate(90 993 251)" fill="#12233B"/>
<rect x="609" y="251" width="24" height="2" rx="1" transform="rotate(90 609 251)" fill="#12233B"/>
<rect x="465" y="251" width="24" height="2" rx="1" transform="rotate(90 465 251)" fill="#12233B"/>
<rect x="1281" y="346" width="24" height="2" rx="1" transform="rotate(90 1281 346)" fill="#12233B"/>
<rect x="897" y="346" width="24" height="2" rx="1" transform="rotate(90 897 346)" fill="#12233B"/>
<rect x="1089" y="346" width="24" height="2" rx="1" transform="rotate(90 1089 346)" fill="#12233B"/>
<rect x="705" y="346" width="24" height="2" rx="1" transform="rotate(90 705 346)" fill="#12233B"/>
<rect x="1281" y="159" width="24" height="2" rx="1" transform="rotate(90 1281 159)" fill="#12233B"/>
<rect x="897" y="159" width="24" height="2" rx="1" transform="rotate(90 897 159)" fill="#12233B"/>
<rect x="1089" y="159" width="24" height="2" rx="1" transform="rotate(90 1089 159)" fill="#12233B"/>
<rect x="705" y="159" width="24" height="2" rx="1" transform="rotate(90 705 159)" fill="#12233B"/>
<rect x="1185" y="346" width="24" height="2" rx="1" transform="rotate(90 1185 346)" fill="#12233B"/>
<rect x="801" y="346" width="24" height="2" rx="1" transform="rotate(90 801 346)" fill="#12233B"/>
<rect x="993" y="346" width="24" height="2" rx="1" transform="rotate(90 993 346)" fill="#12233B"/>
<rect x="609" y="346" width="24" height="2" rx="1" transform="rotate(90 609 346)" fill="#12233B"/>
<rect x="465" y="346" width="24" height="2" rx="1" transform="rotate(90 465 346)" fill="#12233B"/>
<rect x="1185" y="159" width="24" height="2" rx="1" transform="rotate(90 1185 159)" fill="#12233B"/>
<rect x="801" y="159" width="24" height="2" rx="1" transform="rotate(90 801 159)" fill="#12233B"/>
<rect x="993" y="159" width="24" height="2" rx="1" transform="rotate(90 993 159)" fill="#12233B"/>
<rect x="609" y="159" width="24" height="2" rx="1" transform="rotate(90 609 159)" fill="#12233B"/>
<rect x="1233" y="204" width="24" height="2" rx="1" transform="rotate(90 1233 204)" fill="#12233B"/>
<rect x="849" y="204" width="24" height="2" rx="1" transform="rotate(90 849 204)" fill="#E1AFC2"/>
<rect x="1041" y="204" width="24" height="2" rx="1" transform="rotate(90 1041 204)" fill="#12233B"/>
<rect x="657" y="204" width="24" height="2" rx="1" transform="rotate(90 657 204)" fill="#12233B"/>
<rect x="1137" y="204" width="24" height="2" rx="1" transform="rotate(90 1137 204)" fill="#12233B"/>
<rect x="753" y="204" width="24" height="2" rx="1" transform="rotate(90 753 204)" fill="#12233B"/>
<rect x="945" y="204" width="24" height="2" rx="1" transform="rotate(90 945 204)" fill="#12233B"/>
<rect x="561" y="204" width="24" height="2" rx="1" transform="rotate(90 561 204)" fill="#12233B"/>
<rect x="1233" y="299" width="24" height="2" rx="1" transform="rotate(90 1233 299)" fill="#12233B"/>
<rect x="849" y="299" width="24" height="2" rx="1" transform="rotate(90 849 299)" fill="#12233B"/>
<rect x="1041" y="299" width="24" height="2" rx="1" transform="rotate(90 1041 299)" fill="#12233B"/>
<rect x="657" y="299" width="24" height="2" rx="1" transform="rotate(90 657 299)" fill="#12233B"/>
<rect x="513" y="299" width="24" height="2" rx="1" transform="rotate(90 513 299)" fill="#12233B"/>
<rect x="1233" y="112" width="24" height="2" rx="1" transform="rotate(90 1233 112)" fill="#12233B"/>
<rect x="1137" y="299" width="24" height="2" rx="1" transform="rotate(90 1137 299)" fill="#12233B"/>
<rect x="753" y="299" width="24" height="2" rx="1" transform="rotate(90 753 299)" fill="#12233B"/>
<rect x="945" y="299" width="24" height="2" rx="1" transform="rotate(90 945 299)" fill="#12233B"/>
<rect x="561" y="299" width="24" height="2" rx="1" transform="rotate(90 561 299)" fill="#12233B"/>
<rect x="417" y="299" width="24" height="2" rx="1" transform="rotate(90 417 299)" fill="#12233B"/>
<rect x="1137" y="112" width="24" height="2" rx="1" transform="rotate(90 1137 112)" fill="#12233B"/>
<rect x="1281" y="204" width="24" height="2" rx="1" transform="rotate(90 1281 204)" fill="#12233B"/>
<rect x="897" y="204" width="24" height="2" rx="1" transform="rotate(90 897 204)" fill="#12233B"/>
<rect x="1089" y="204" width="24" height="2" rx="1" transform="rotate(90 1089 204)" fill="#12233B"/>
<rect x="705" y="204" width="24" height="2" rx="1" transform="rotate(90 705 204)" fill="#12233B"/>
<rect x="1281" y="17" width="24" height="2" rx="1" transform="rotate(90 1281 17)" fill="#12233B"/>
<rect x="1185" y="204" width="24" height="2" rx="1" transform="rotate(90 1185 204)" fill="#12233B"/>
<rect x="801" y="204" width="24" height="2" rx="1" transform="rotate(90 801 204)" fill="#12233B"/>
<rect x="993" y="204" width="24" height="2" rx="1" transform="rotate(90 993 204)" fill="#12233B"/>
<rect x="609" y="204" width="24" height="2" rx="1" transform="rotate(90 609 204)" fill="#12233B"/>
<rect x="1281" y="299" width="24" height="2" rx="1" transform="rotate(90 1281 299)" fill="#12233B"/>
<rect x="897" y="299" width="24" height="2" rx="1" transform="rotate(90 897 299)" fill="#12233B"/>
<rect x="1089" y="299" width="24" height="2" rx="1" transform="rotate(90 1089 299)" fill="#12233B"/>
<rect x="705" y="299" width="24" height="2" rx="1" transform="rotate(90 705 299)" fill="#12233B"/>
<rect x="1281" y="112" width="24" height="2" rx="1" transform="rotate(90 1281 112)" fill="#12233B"/>
<rect x="1089" y="112" width="24" height="2" rx="1" transform="rotate(90 1089 112)" fill="#12233B"/>
<rect x="1185" y="299" width="24" height="2" rx="1" transform="rotate(90 1185 299)" fill="#12233B"/>
<rect x="801" y="299" width="24" height="2" rx="1" transform="rotate(90 801 299)" fill="#12233B"/>
<rect x="993" y="299" width="24" height="2" rx="1" transform="rotate(90 993 299)" fill="#12233B"/>
<rect x="609" y="299" width="24" height="2" rx="1" transform="rotate(90 609 299)" fill="#12233B"/>
<rect x="465" y="299" width="24" height="2" rx="1" transform="rotate(90 465 299)" fill="#12233B"/>
<rect x="1185" y="112" width="24" height="2" rx="1" transform="rotate(90 1185 112)" fill="#12233B"/>
<rect x="801" y="112" width="24" height="2" rx="1" transform="rotate(90 801 112)" fill="#12233B"/>
<rect x="993" y="112" width="24" height="2" rx="1" transform="rotate(90 993 112)" fill="#E1AFC2"/>
<rect x="1196" y="286" width="24" height="2" rx="1" fill="#12233B"/>
<rect x="812" y="286" width="24" height="2" rx="1" fill="#12233B"/>
<rect x="1004" y="286" width="24" height="2" rx="1" fill="#12233B"/>
<rect x="620" y="286" width="24" height="2" rx="1" fill="#12233B"/>
<rect x="476" y="286" width="24" height="2" rx="1" fill="#12233B"/>
<rect x="1196" y="99" width="24" height="2" rx="1" fill="#12233B"/>
<rect x="1100" y="286" width="24" height="2" rx="1" fill="#12233B"/>
<rect x="716" y="286" width="24" height="2" rx="1" fill="#12233B"/>
<rect x="908" y="286" width="24" height="2" rx="1" fill="#12233B"/>
<rect x="524" y="286" width="24" height="2" rx="1" fill="#12233B"/>
<rect x="1100" y="99" width="24" height="2" rx="1" fill="#12233B"/>
<rect x="1292" y="286" width="24" height="2" rx="1" fill="#12233B"/>
<rect x="1100" y="286" width="24" height="2" rx="1" fill="#12233B"/>
<rect x="716" y="286" width="24" height="2" rx="1" fill="#12233B"/>
<rect x="1292" y="99" width="24" height="2" rx="1" fill="#12233B"/>
<rect x="1100" y="99" width="24" height="2" rx="1" fill="#12233B"/>
<rect x="1196" y="194" width="24" height="2" rx="1" fill="#12233B"/>
<rect x="812" y="194" width="24" height="2" rx="1" fill="#12233B"/>
<rect x="1004" y="194" width="24" height="2" rx="1" fill="#12233B"/>
<rect x="620" y="194" width="24" height="2" rx="1" fill="#12233B"/>
<rect x="1100" y="194" width="24" height="2" rx="1" fill="#12233B"/>
<rect x="716" y="194" width="24" height="2" rx="1" fill="#12233B"/>
<rect x="908" y="194" width="24" height="2" rx="1" fill="#12233B"/>
<rect x="1292" y="194" width="24" height="2" rx="1" fill="#12233B"/>
<rect x="1100" y="194" width="24" height="2" rx="1" fill="#12233B"/>
<rect x="716" y="194" width="24" height="2" rx="1" fill="#E1AFC2"/>
</svg>
